<svg width="17" height="23" viewBox="0 0 17 23" fill="none" xmlns="http://www.w3.org/2000/svg">
<path d="M8.5 4.85057C7.786 4.85057 7.072 4.94253 6.40333 5.12644V3.4023C6.40333 3.4023 6.40333 3.32184 6.40333 3.28736C6.26733 1.4023 4.896 0 3.21867 0C1.54133 0 0.136 1.3908 0 3.28736C0 3.33333 0 9.74713 0 9.74713V14.0115C0.0453333 18.977 3.842 23 8.5 23C13.158 23 17 18.9425 17 13.931C17 8.91954 13.192 4.85057 8.5 4.85057ZM8.5 21.5977C4.53333 21.5977 1.30333 18.1494 1.30333 13.9195V3.47126C1.30333 2.34483 2.15333 1.42529 3.20733 1.42529C4.26133 1.42529 5.11133 2.34483 5.11133 3.47126V13.8276C5.11133 15.8391 6.63 17.5517 8.51133 17.5517C10.3927 17.5517 11.9113 15.931 11.9113 13.9195C11.9113 11.908 10.3927 10.2874 8.51133 10.2874C7.718 10.2874 7.004 10.5747 6.41467 11.0575V9.49425C7.04933 9.16092 7.752 8.96552 8.51133 8.96552C11.0727 8.96552 13.158 11.1839 13.158 13.9195C13.158 16.6552 11.084 18.8736 8.51133 18.8736C5.93867 18.8736 3.86467 16.6552 3.86467 13.9195V3.4023C3.86467 3.06897 3.57 2.73563 3.20733 2.73563C2.84467 2.73563 2.55 3.05747 2.55 3.4023V13.9195C2.55 14.0805 2.55 14.2299 2.57267 14.3908C2.79933 17.6782 5.36067 20.2759 8.51133 20.2759C11.662 20.2759 14.4613 17.4368 14.4613 13.931C14.4613 10.4253 11.798 7.58621 8.51133 7.58621C7.77467 7.58621 7.06067 7.72414 6.41467 7.98851V6.56322C7.08333 6.34483 7.786 6.22989 8.51133 6.22989C12.4893 6.22989 15.708 9.66667 15.708 13.908C15.6853 18.1494 12.4667 21.5977 8.48867 21.5977H8.5ZM6.40333 13.9195C6.40333 12.6897 7.33267 11.6782 8.5 11.6782C9.66733 11.6782 10.5967 12.6782 10.5967 13.9195C10.5967 15.1609 9.66733 16.1609 8.5 16.1609C7.344 16.1494 6.40333 15.1494 6.40333 13.9195Z" fill="#888888"/>
</svg>
