<svg width="18" height="18" viewBox="0 0 18 18" fill="none" xmlns="http://www.w3.org/2000/svg">
<path d="M8.99606 1.6213C11.3979 1.6213 11.6819 1.62919 12.6323 1.67258C13.5079 1.71203 13.9851 1.85799 14.3046 1.98422C14.7226 2.14596 15.0223 2.3432 15.3379 2.65878C15.6534 2.97436 15.8466 3.27416 16.0123 3.69231C16.1345 4.00789 16.2805 4.48521 16.3238 5.36489C16.3672 6.31558 16.3751 6.59961 16.3751 9.00197C16.3751 11.4043 16.3672 11.6884 16.3238 12.6391C16.2844 13.5148 16.1385 13.9921 16.0123 14.3116C15.8506 14.7298 15.6534 15.0296 15.3379 15.3452C15.0223 15.6608 14.7226 15.854 14.3046 16.0197C13.989 16.142 13.5118 16.288 12.6323 16.3314C11.6819 16.3748 11.3979 16.3826 8.99606 16.3826C6.59422 16.3826 6.31025 16.3748 5.35977 16.3314C4.48422 16.2919 4.00701 16.146 3.68755 16.0197C3.2695 15.858 2.96976 15.6608 2.65425 15.3452C2.33874 15.0296 2.14549 14.7298 1.97984 14.3116C1.85758 13.9961 1.71166 13.5187 1.66827 12.6391C1.62489 11.6884 1.617 11.4043 1.617 9.00197C1.617 6.59961 1.62489 6.31558 1.66827 5.36489C1.70771 4.48915 1.85364 4.01183 1.97984 3.69231C2.14154 3.27416 2.33874 2.97436 2.65425 2.65878C2.96976 2.3432 3.2695 2.1499 3.68755 1.98422C4.00307 1.86193 4.48028 1.71598 5.35977 1.67258C6.31025 1.62919 6.59422 1.6213 8.99606 1.6213ZM8.99606 0C6.55083 0 6.24715 0.0118343 5.28484 0.0552268C4.32647 0.0986193 3.67178 0.252466 3.09991 0.473373C2.50833 0.70217 2.00745 1.00986 1.50657 1.51085C1.00964 2.01183 0.702016 2.51282 0.473269 3.10454C0.25241 3.67653 0.0985977 4.33136 0.0552147 5.28994C0.0118317 6.24852 0 6.55621 0 8.99803C0 11.4438 0.0118317 11.7475 0.0552147 12.7101C0.0985977 13.6686 0.25241 14.3235 0.473269 14.8955C0.702016 15.4872 1.00964 15.9882 1.51052 16.4892C2.01139 16.9901 2.51227 17.2978 3.10386 17.5266C3.67572 17.7475 4.33041 17.9014 5.28878 17.9448C6.24715 17.9882 6.55478 18 9 18C11.4452 18 11.7489 17.9882 12.7112 17.9448C13.6696 17.9014 14.3243 17.7475 14.8961 17.5266C15.4877 17.2978 15.9886 16.9901 16.4895 16.4892C16.9904 15.9882 17.298 15.4872 17.5267 14.8955C17.7476 14.3235 17.9014 13.6686 17.9448 12.7101C17.9882 11.7515 18 11.4438 18 8.99803C18 6.55227 17.9882 6.24852 17.9448 5.286C17.9014 4.32742 17.7476 3.67258 17.5267 3.10059C17.298 2.50888 16.9904 2.00789 16.4895 1.5069C15.9886 1.00592 15.4877 0.698225 14.8961 0.469428C14.3243 0.248521 13.6696 0.0946746 12.7112 0.0512821C11.7489 0.0118343 11.4413 0 8.99606 0Z" fill="#888888"/>
<path d="M8.99606 4.3787C6.44435 4.3787 4.37774 6.44576 4.37774 8.99803C4.37774 11.5503 6.44829 13.6213 9 13.6213C11.5517 13.6213 13.6223 11.5542 13.6223 8.99803C13.6183 6.44576 11.5478 4.3787 8.99606 4.3787ZM8.99606 12C7.33961 12 5.99869 10.6588 5.99869 9.00197C5.99869 7.34517 7.33961 6.00395 8.99606 6.00395C10.6525 6.00395 11.9934 7.34517 11.9934 9.00197C11.9974 10.6548 10.6525 12 8.99606 12Z" fill="#888888"/>
<path d="M14.8804 4.19724C14.8804 4.7929 14.3953 5.27811 13.7997 5.27811C13.2042 5.27811 12.7191 4.7929 12.7191 4.19724C12.7191 3.60158 13.2042 3.11637 13.7997 3.11637C14.3953 3.11637 14.8804 3.59763 14.8804 4.19724Z" fill="#888888"/>
</svg>
