<svg width="18" height="13" viewBox="0 0 18 13" fill="none" xmlns="http://www.w3.org/2000/svg">
<path d="M17.82 2.81804C17.82 2.81804 17.64 1.54272 17.1 0.987342C16.42 0.246836 15.64 0.246835 15.3 0.205696C12.78 0 9 0 9 0C9 0 5.22 0 2.7 0.185127C2.34 0.226266 1.58 0.226266 0.9 0.966772C0.36 1.52215 0.18 2.79747 0.18 2.79747C0.18 2.79747 0 4.29905 0 5.80063V7.19937C0 8.70095 0.18 10.2025 0.18 10.2025C0.18 10.2025 0.36 11.4778 0.9 12.0332C1.58 12.7737 2.48 12.7532 2.88 12.8149C4.32 12.9589 9 13 9 13C9 13 12.78 13 15.3 12.8149C15.66 12.7737 16.42 12.7737 17.1 12.0332C17.64 11.4778 17.82 10.2025 17.82 10.2025C17.82 10.2025 18 8.70095 18 7.21994V5.8212C18 4.29905 17.82 2.81804 17.82 2.81804ZM7.14 8.90664V3.70253L12 6.31487L7.14 8.90664Z" fill="#888888"/>
</svg>
