<svg width="19" height="19" viewBox="0 0 19 19" fill="none" xmlns="http://www.w3.org/2000/svg">
<path fill-rule="evenodd" clip-rule="evenodd" d="M15.5495 7.24855H0V11.5756C0 15.6763 3.3318 19 7.4424 19C10.6521 19 13.3871 16.9738 14.4309 14.1339H15.5495C17.4551 14.1339 19 12.5927 19 10.6918C19 8.79089 17.4551 7.2497 15.5495 7.2497V7.24855ZM15.5495 12.572H14.8168C14.8606 12.2456 14.8836 11.9135 14.8836 11.5756V8.80928H15.5484C16.5899 8.80928 17.4343 9.65171 17.4343 10.6907C17.4343 11.7296 16.5899 12.572 15.5484 12.572H15.5495Z" fill="#888888"/>
<path fill-rule="evenodd" clip-rule="evenodd" d="M8.70853 4.94998C11.4482 4.94998 13.6705 2.73415 13.6705 0H8.07028C5.32949 0 3.1083 2.21582 3.1083 4.94998H8.70853Z" fill="#888888"/>
</svg>
