<svg width="311" height="340" viewBox="0 0 311 340" fill="none" xmlns="http://www.w3.org/2000/svg">
<g clip-path="url(#clip0_335_3438)">
<path fill-rule="evenodd" clip-rule="evenodd" d="M51.8516 202.761C51.8516 202.478 47.6222 199.937 42.5464 197.489C36.9064 194.758 30.0453 192.027 23.559 188.826C20.2685 187.225 16.7906 186.095 14.4411 184.777C11.058 182.894 9.36535 179.598 9.36535 179.315C9.17797 177.527 10.5864 175.078 11.3401 173.76C12.4685 171.877 17.639 164.91 19.7064 162.932C20.3653 162.272 26.2853 155.964 32.8663 149.655C37.8474 144.948 43.2053 140.709 47.1547 137.32C50.0684 134.777 52.3252 132.706 52.7947 132.613C53.2642 132.518 52.9821 131.671 54.0158 130.635C54.7674 129.788 56.8348 127.622 57.5884 128.092C58.1526 128.375 60.3147 130.446 62.0073 132.989C63.5105 135.249 64.6389 137.978 64.8263 138.921C65.2958 140.709 64.8263 141.369 64.1674 142.875C63.6979 144.005 62.3821 145.981 61.3484 147.019C60.7842 147.584 60.4094 146.924 60.22 147.866C60.1253 148.432 58.7168 150.315 55.521 154.176C53.1716 157 49.9758 160.766 48.001 163.779C46.0263 166.886 45.2747 169.241 45.3695 169.334C46.2158 170.087 50.3505 169.899 54.5821 169.617C57.9652 169.334 61.5378 169.051 62.5715 169.051C65.2978 169.146 68.3989 170.464 70.7505 169.994C72.0662 169.711 74.6978 168.111 76.1083 167.923C76.7673 167.828 77.0473 167.923 77.7062 167.828C77.9883 167.828 78.2704 165.663 79.2094 164.25C80.0557 162.932 81.6536 162.272 81.841 162.272C82.4999 162.272 94.5315 180.068 95.1884 180.068C100.923 180.068 101.11 162.459 107.033 161.989C107.409 161.989 108.725 162.177 109.759 163.967C110.698 165.473 111.357 168.486 111.639 168.581C114.74 169.994 121.885 171.595 124.517 172.442C128.089 173.573 136.079 175.266 136.643 175.549C139.275 176.772 142.752 178.938 144.445 180.068C145.856 181.01 147.171 182.611 148.205 185.53C149.426 188.919 149.99 193.345 150.555 195.133C151.776 199.37 152.247 203.701 152.811 207.845C153.094 210.011 153.376 212.082 153.845 215.095C154.504 219.332 155.538 224.981 156.195 229.973C157.041 236.47 157.887 244.003 158.357 247.581C158.639 249.559 159.108 252.1 159.296 254.266C159.39 256.714 159.39 258.598 159.014 259.256C158.637 259.914 156.475 262.739 154.595 263.399C151.399 264.435 146.698 265.377 142.468 265.66C138.426 265.848 131.847 265.755 131.753 265.755C130.906 266.132 130.719 268.015 130.624 269.709C130.529 270.274 130.529 272.627 130.624 275.076C130.906 279.03 131.283 283.551 130.247 283.644C127.991 284.021 124.984 285.432 121.035 285.997C114.643 287.033 106.372 287.315 98.1926 287.033C85.5022 286.655 71.4959 285.62 62.7548 284.019C56.8327 282.984 53.8243 281.288 53.6369 280.818C52.8853 279.123 53.3548 247.769 53.3548 245.698C53.0727 239.108 52.8853 219.616 52.3211 212.744C52.4158 211.801 51.8516 204.081 51.8516 202.763V202.761Z" fill="white"/>
<path fill-rule="evenodd" clip-rule="evenodd" d="M68.8663 123.198C69.2432 122.445 70.1821 120.749 70.841 119.244C71.8747 117.078 72.9084 115.007 75.0705 113.971C75.9168 113.594 77.6095 113.031 78.7358 113.219C79.2053 113.314 77.7968 111.806 78.2663 111.806C79.3947 111.993 81.0853 111.901 81.8389 111.241C83.3421 110.017 85.2221 108.887 86.2579 108.887C87.8557 108.887 92.5568 108.699 95.1884 109.83C95.5652 110.017 97.3505 109.642 99.0431 110.3C101.487 111.148 103.273 111.523 104.214 112.371C104.778 112.936 106.281 114.442 106.845 116.608C107.409 118.678 107.033 121.504 106.376 122.822C104.496 126.494 96.0347 124.328 96.0347 126.683C96.0347 133.181 91.8052 140.618 85.5063 140.618C83.6263 140.618 79.7716 145.985 76.1063 147.963C74.9779 148.528 71.8768 147.776 71.2179 147.303C70.3716 146.738 69.7147 144.385 69.1505 142.972C68.8684 142.312 66.6116 142.689 66.4242 142.031C66.2368 141.466 68.1168 140.808 67.0831 136.569C65.6726 130.45 67.742 125.553 68.8684 123.2L68.8663 123.198Z" fill="#BA736A"/>
<path fill-rule="evenodd" clip-rule="evenodd" d="M75.3506 147.301C75.3506 145.606 76.5716 144.475 78.1695 144.475C78.5464 144.475 80.4264 143.723 81.9295 142.027C82.4937 141.367 82.8685 140.427 82.7758 138.543C82.7758 137.978 84.5611 136.095 84.3737 132.611C84.279 131.481 84.6558 128.657 86.2537 127.715C87.1927 127.244 87.5695 125.831 88.039 124.419C88.6032 123.006 89.1674 121.783 90.1064 121.03C90.858 120.465 92.8327 119.807 93.8664 119.994C94.9948 120.182 95.2769 121.125 95.6517 121.125C96.9675 121.125 99.3169 119.241 101.197 118.959C102.7 118.771 103.829 119.899 104.77 120.654C105.898 121.597 106.932 123.29 107.308 125.081C108.155 128.752 109.471 132.896 110.599 135.815C111.633 138.545 112.384 139.958 113.043 141.934C113.42 143.347 113.607 146.266 113.231 148.807C112.479 153.986 110.222 158.788 107.403 159.163C106.934 159.258 106.557 164.718 107.216 168.484C107.593 170.462 108.249 171.685 108.532 172.156C108.814 172.533 107.498 174.134 106.369 175.545C104.677 177.523 102.704 179.688 102.14 181.759C101.671 183.455 102.045 187.786 101.294 187.691C101.012 187.596 99.6011 183.83 97.5337 182.229C96.4053 181.289 94.7147 179.593 93.2095 178.558C90.5779 176.77 87.9464 175.545 85.6895 173.756C82.399 171.12 80.4264 168.767 80.7085 167.447C81.0853 165.751 82.3064 164.246 81.7421 159.066C81.46 156.241 80.6137 153.417 80.3316 153.322C77.7001 152.569 75.3506 150.498 75.3506 147.295V147.301Z" fill="#FFE9E1"/>
<path fill-rule="evenodd" clip-rule="evenodd" d="M58.5253 128.752C58.5253 128.752 59.0895 127.717 58.9021 126.681C58.7148 125.646 58.4327 122.538 58.1506 121.314C57.9632 120.091 57.9632 119.054 58.3379 117.643C58.8074 116.325 59.8411 114.724 60.5948 114.159C61.3484 113.594 62.38 112.464 63.3211 111.993C64.2621 111.523 64.5421 111.806 65.3884 111.993C66.14 112.181 67.1737 111.899 68.02 111.806C68.8663 111.618 68.8663 111.901 69.4305 112.183C69.9948 112.466 71.6874 113.124 72.7211 113.314C73.7547 113.501 75.0705 114.161 75.0705 114.161C75.0705 114.161 73.66 115.197 73.1905 115.857C72.7211 116.517 71.0284 119.435 70.5589 120.376C70.0895 121.316 69.5253 122.354 69.1484 122.919C68.7716 123.484 68.7716 124.332 68.9611 125.743C69.1505 127.154 69.8074 129.887 69.62 131.015C69.4326 132.143 68.9611 133.933 67.9274 135.159C66.8937 136.382 65.1084 138.737 65.1084 138.737C65.1084 138.737 64.1674 135.911 63.3231 134.783C62.4768 133.653 61.2557 132.052 60.4094 131.017C59.4684 129.981 58.5294 128.756 58.5294 128.756L58.5253 128.752Z" fill="#FFE9E1"/>
<path fill-rule="evenodd" clip-rule="evenodd" d="M54.0137 282.514C54.0137 281.666 56.0811 282.891 59.0895 283.549C63.8832 284.584 70.9337 285.715 73.5653 285.715C80.1443 285.715 90.8621 288.163 100.824 287.786C107.78 287.503 116.241 287.22 122.443 286.185C125.826 285.62 128.647 284.772 130.34 283.924C131.186 283.547 131.374 287.22 132.315 293.528C132.974 297.765 133.443 303.226 134.1 308.406C134.664 312.925 135.416 317.539 135.416 321.588C135.416 322.435 135.885 326.389 135.98 331.191C136.167 336.276 135.885 341.172 135.885 341.172C135.885 341.172 127.706 342.395 118.588 342.96C109.565 343.621 99.6011 343.62 99.6011 343.62C99.6011 343.62 98.0979 336.936 96.7801 332.699C95.6517 328.838 94.7127 325.919 94.0538 325.919C93.4896 325.919 91.8917 330.438 91.0454 334.77C90.1991 338.536 90.0117 343.62 90.0117 343.62C90.0117 343.62 79.4833 343.998 69.1443 343.338C58.898 342.678 48.8412 340.984 48.8412 340.984C48.8412 340.984 48.9359 338.441 48.9359 333.639C48.9359 330.061 49.1233 326.86 49.218 325.164C49.4054 322.528 50.2517 311.605 51.4748 300.588C52.6032 292.49 54.0137 283.075 54.0137 282.509V282.514Z" fill="#8389A0"/>
<path fill-rule="evenodd" clip-rule="evenodd" d="M214.66 303.416C214.66 301.533 214.565 297.296 214.66 293.718C214.755 289.104 215.224 285.242 215.788 284.207C216.352 283.359 218.607 276.109 220.3 271.213C221.051 268.952 221.521 266.976 221.898 266.693C229.7 260.574 268.146 268.011 280.742 269.707C281.493 269.802 283.373 272.908 284.784 277.617C285.725 280.913 286.194 283.644 286.946 288.068C287.98 294.471 288.262 302.193 288.262 308.783C288.262 310.384 288.074 315.093 287.698 320.93C287.228 329.31 286.569 342.305 286.569 342.305C286.569 342.305 267.957 344 251.883 344C235.809 344 222.18 342.399 222.18 342.399C222.18 342.399 218.889 328.84 216.727 317.541C215.317 311.231 214.66 305.582 214.66 303.416Z" fill="#8389A0"/>
<path fill-rule="evenodd" clip-rule="evenodd" d="M210.148 273.098C210.148 273.098 212.592 271.875 213.813 270.837C214.942 269.802 217.668 267.541 217.668 267.541C217.668 267.541 218.138 268.106 218.607 267.541C219.171 266.976 219.923 267.446 220.487 268.011C221.051 268.577 221.616 269.047 222.555 271.025C223.494 273.003 224.058 273.285 224.247 275.169C224.342 277.052 224.247 277.334 224.06 278.275C223.778 279.218 224.154 280.158 223.683 281.288C223.306 282.419 223.119 282.606 222.367 283.454C221.616 284.302 221.803 285.055 220.864 285.808C220.018 286.56 219.923 287.126 218.984 286.843C218.043 286.655 216.727 285.713 216.165 284.96C215.506 284.207 215.319 283.642 214.003 282.324C212.782 280.911 212.123 280.818 211.841 279.688C211.559 278.557 211.746 279.028 211.464 277.522C211.182 275.734 210.148 273.096 210.148 273.096V273.098Z" fill="#FFE9E1"/>
<path fill-rule="evenodd" clip-rule="evenodd" d="M218.607 227.619C218.607 226.206 219.359 223.948 218.043 225.266C217.291 226.114 214.096 228.844 212.78 230.538C211.087 232.704 210.995 234.022 208.55 235.245C208.268 235.34 209.491 238.068 209.961 240.517C210.902 245.413 212.123 251.251 212.969 253.134C213.91 255.487 215.978 260.761 215.788 262.644C215.693 263.775 216.54 264.15 217.104 264.81C217.573 265.28 218.045 266.128 217.573 266.881C217.009 268.011 215.224 269.329 213.626 270.647C211.841 271.965 210.148 273.191 209.302 273.283C208.832 273.378 207.891 272.341 207.422 271.4C206.858 270.458 206.763 269.517 206.481 269.422C206.104 269.327 204.131 268.762 203.098 266.974C202.251 265.373 201.312 262.36 200.279 259.911C198.681 256.145 196.706 253.132 195.016 249.46C193.795 246.824 192.759 243.246 192.007 240.892C190.879 237.503 190.597 233.642 190.597 233.265C190.691 232.041 191.443 228.18 193.228 224.979C194.731 222.248 197.74 218.577 199.997 215.846C202.536 212.832 204.508 210.667 207.329 206.9C210.712 202.286 213.908 196.732 216.352 192.776C218.797 188.822 220.395 186.466 220.677 186.186C223.121 183.455 223.967 183.079 226.786 182.232C229.887 181.291 233.272 181.384 233.647 181.291C236.656 180.726 238.346 179.785 239.287 179.596C245.491 178.09 264.668 165.848 274.161 170.462C274.443 170.65 276.323 172.44 277.262 174.606C278.108 176.677 278.013 179.032 278.296 179.313C279.142 180.066 281.115 181.666 282.338 182.609C284.594 184.21 286.757 185.433 289.388 187.128C291.832 188.729 294.559 189.859 296.813 191.46C299.163 193.06 301.043 195.038 302.077 196.261C303.392 197.767 304.521 203.511 304.239 207.843C304.051 211.327 303.298 214.245 302.453 217.164C301.512 220.46 300.386 223.473 299.727 224.979C299.068 226.58 297.66 229.969 296.908 232.042C296.062 234.112 294.933 237.314 293.994 239.574C292.584 243.058 292.397 246.824 291.081 249.933C288.167 256.805 284.407 261.984 283.561 262.55C281.681 263.68 280.552 262.644 279.706 262.927C279.329 263.115 279.237 265.563 279.706 267.353C280.176 268.954 281.209 269.802 280.74 269.802C278.86 269.802 276.228 271.307 271.999 272.438C266.264 273.943 257.992 275.169 250.567 275.169C244.927 275.169 238.723 273.945 233.929 272.533C227.63 270.744 223.401 268.484 222.085 266.601C221.426 265.565 223.213 256.337 222.931 254.736C222.462 252.288 221.99 249.182 221.521 245.508C221.051 242.59 220.487 238.918 220.205 237.976C219.548 235.432 218.607 230.726 218.607 227.617V227.619Z" fill="white"/>
<path fill-rule="evenodd" clip-rule="evenodd" d="M241.072 138.075C241.072 135.532 243.047 131.578 246.525 128.754C249.816 126.118 254.515 124.518 258.746 123.575C261.003 123.105 264.104 122.352 267.112 122.822C270.121 123.292 270.026 122.822 271.624 122.822C273.504 122.822 275.384 123.292 277.733 124.235C279.801 125.083 282.34 126.496 283.655 128.284C284.689 129.697 285.912 131.955 286.757 134.969C287.885 138.735 288.542 143.349 288.542 145.515C288.542 145.985 290.14 145.515 291.456 146.55C292.489 147.398 293.241 149.564 293.9 151.447C294.087 151.917 294.559 154.553 294.277 157.284C293.9 161.898 292.679 167.643 291.927 170.654C291.645 171.784 290.611 175.551 291.081 178.469C291.458 180.823 291.832 181.765 292.209 183.554C292.491 185.059 293.055 187.508 292.209 188.168C291.832 188.45 288.262 186.662 285.066 184.589C282.717 183.083 280.46 181.293 280.085 180.918C279.615 180.54 279.239 178.752 279.615 176.964C280.274 173.385 282.154 168.771 282.434 168.113C283.468 165.477 282.434 160.958 282.058 161.24C280.365 162.653 278.485 163.594 276.512 163.594C271.06 163.594 249.723 151.259 242.954 144.667C241.262 142.972 241.074 139.771 241.074 138.077L241.072 138.075Z" fill="#EA6F68"/>
<path fill-rule="evenodd" clip-rule="evenodd" d="M243.329 152.01C244.176 149.657 244.927 141.181 246.243 138.263C247.182 136.285 248.875 132.801 250.38 132.426C252.919 131.673 254.327 131.203 256.207 131.203C257.71 131.203 260.626 133.463 262.129 136.099C262.788 137.322 263.632 138.83 264.573 141.936C265.232 144.102 265.607 146.173 266.548 148.526C267.3 150.597 268.616 152.953 269.649 154.176C270.59 155.211 272.468 156.437 273.504 156.624C274.163 156.719 274.725 155.871 275.289 155.494C278.108 153.988 280.27 155.024 280.27 156.529C280.27 157.282 279.424 159.26 278.767 160.578C277.733 162.461 276.51 163.779 275.194 164.157C275.007 164.252 274.348 166.981 274.161 169.994C273.973 172.818 274.256 175.831 274.63 177.056C274.818 177.527 273.784 179.127 272.373 180.07C270.211 181.576 266.357 182.518 263.632 183.931C261.093 185.249 259.59 186.945 259.308 187.32C259.213 187.415 258.462 187.415 258.744 189.108C259.026 191.086 260.529 195.981 261.563 197.489C261.845 197.866 260.622 199.372 259.213 200.502C257.616 201.725 254.607 202.198 253.856 202.103C253.573 202.103 252.635 200.597 251.881 199.467C250.66 197.584 249.437 195.23 248.121 192.782C247.087 190.711 246.428 188.545 246.241 188.545C246.146 188.545 243.984 188.923 243.515 189.11C243.138 189.298 240.788 189.11 240.037 187.98C239.66 187.415 239.567 186.002 239.19 184.874C239.096 184.496 238.626 183.368 239.096 182.331C239.283 181.953 239.565 181.671 239.847 181.295C240.317 180.542 240.129 179.129 240.599 178.564C241.445 177.529 243.043 177.434 242.948 177.434C242.761 177.339 242.854 174.42 245.205 173.573C246.334 173.195 247.931 173.29 249.342 173.478C250.845 173.665 252.161 174.043 252.161 173.948C252.066 173.665 251.784 171.312 251.409 171.217C248.683 171.122 247.18 170.557 245.675 169.429C244.923 168.864 244.454 168.299 244.077 167.641C243.7 166.981 242.761 166.228 242.479 165.475C242.291 165.005 242.856 164.532 242.666 163.969C242.289 162.839 241.82 160.108 241.82 158.225C241.82 156.059 242.289 154.646 243.323 152.01H243.329Z" fill="#FFE9E1"/>
<path fill-rule="evenodd" clip-rule="evenodd" d="M103.458 239.106L115.115 197.206L157.321 195.605L139.18 245.321C139.18 245.321 136.548 245.508 135.325 246.261C133.915 247.014 133.915 248.239 133.35 248.049C132.317 247.767 130.812 247.202 130.06 247.389C129.026 247.577 126.864 246.542 126.205 246.824C122.822 248.52 125.454 252.191 125.454 252.191L120.001 254.922L103.458 239.104V239.106Z" fill="#EA6F68"/>
<path fill-rule="evenodd" clip-rule="evenodd" d="M92.3653 277.992L97.5358 258.596L118.403 260.761C118.403 260.761 119.532 262.832 120.47 264.15C121.409 265.468 122.068 265.938 122.068 265.938C122.068 265.938 125.264 266.221 127.708 266.221C130.153 266.221 131.75 265.844 131.75 265.844L130.435 269.327L92.3653 277.99V277.992Z" fill="#EA6F68"/>
<path fill-rule="evenodd" clip-rule="evenodd" d="M101.578 236.845L113.14 197.111L115.397 196.829L103.553 239.106L101.578 236.845Z" fill="white"/>
<path fill-rule="evenodd" clip-rule="evenodd" d="M96.0305 257.467L97.8158 258.503L92.0811 278.652L90.4832 277.239L96.0285 257.467H96.0305Z" fill="white"/>
<path fill-rule="evenodd" clip-rule="evenodd" d="M92.3653 243.908C92.3653 242.872 91.1442 241.364 91.7063 240.329C92.1758 239.576 93.0221 239.199 94.2453 238.823C94.7148 238.728 95.6558 238.446 96.1253 238.353C96.5947 238.26 96.3126 237.6 96.1253 236.847C96.0305 236.095 95.9379 235.342 96.4074 234.777C97.159 233.929 98.1926 233.459 99.6032 233.271C100.637 233.083 102.517 232.988 102.517 232.988L101.671 237.132C101.671 237.132 102.986 239.015 104.302 240.145C105.805 241.369 109.096 242.406 110.881 242.216C111.068 242.216 110.786 240.428 109.94 238.827C109.188 237.227 107.873 235.721 107.026 233.931C106.275 232.235 106.087 231.012 105.805 229.882C105.618 228.941 106.744 227.339 107.121 227.434C107.498 227.434 108.249 227.904 109.001 229.034C109.188 229.317 109.847 230.73 111.163 231.765C111.633 232.143 113.607 233.931 114.736 235.531C116.993 238.733 118.965 243.064 119.06 243.159C119.342 243.536 120.188 246.36 122.161 247.868C124.228 249.468 127.237 249.656 127.237 249.656C127.237 249.656 127.424 251.822 126.86 255.023C126.108 259.167 123.477 263.498 123.005 263.026C122.628 262.556 121.125 261.331 117.742 260.765C112.384 259.918 104.677 260.105 103.736 260.105C102.043 260.105 97.6264 259.258 96.1211 257.469C95.2748 256.434 91.9843 253.798 90.7633 251.82C90.1991 250.784 90.7633 249.842 91.1401 249.466C91.7043 248.806 90.4812 246.923 90.5759 246.078C90.858 244.854 92.3612 244.572 92.3612 243.912L92.3653 243.908Z" fill="#FFE9E1"/>
<path d="M107.028 124.893C106.746 124.893 106.464 124.705 106.464 124.423C106.182 123.48 104.02 120.374 102.045 119.526C101.763 119.431 101.576 119.056 101.763 118.678C101.858 118.396 102.233 118.208 102.61 118.396C104.959 119.431 107.403 122.822 107.78 124.045C107.875 124.328 107.685 124.705 107.311 124.798C107.186 124.861 107.092 124.893 107.028 124.893Z" fill="#2E2020"/>
<path d="M101.765 161.143C96.5948 161.143 90.8621 159.073 88.3232 156.907C88.0411 156.719 88.0411 156.342 88.2285 156.059C88.4158 155.776 88.7927 155.776 89.0748 155.964C92.8348 159.165 104.115 162.084 109.003 157.66C113.327 153.798 113.702 142.407 111.26 139.393C111.073 139.111 111.073 138.733 111.355 138.545C111.637 138.358 112.014 138.358 112.201 138.64C115.022 142.124 114.74 154.176 109.852 158.602C107.784 160.391 104.87 161.145 101.767 161.145L101.765 161.143Z" fill="#2E2020"/>
<path d="M81.3674 154.269C81.0853 154.269 80.8032 154.269 80.6158 154.174C78.6411 153.796 76.1969 151.726 75.1632 149.655C74.5043 148.337 74.4116 147.111 74.8811 146.076C75.3506 145.041 76.5737 144.005 77.7948 143.91C78.6411 143.91 79.298 144.288 79.7695 145.041C79.9569 145.323 79.8642 145.701 79.5821 145.888C79.3 146.076 78.9232 145.983 78.7358 145.701C78.4537 145.23 78.0769 145.135 77.8895 145.135C77.1379 145.135 76.2916 145.983 76.0095 146.641C75.6327 147.394 75.7274 148.242 76.1969 149.184C77.1379 151.068 79.3927 152.668 80.8032 153.046C81.6495 153.233 82.4011 152.951 83.2474 152.575L83.7169 152.388C83.999 152.293 84.3758 152.388 84.4685 152.765C84.5632 153.048 84.4685 153.425 84.0916 153.518L83.6221 153.706C83.0579 153.988 82.3064 154.271 81.3653 154.271L81.3674 154.269Z" fill="#2E2020"/>
<path d="M82.4011 150.692C82.0243 150.692 81.8369 150.41 81.8369 150.222C81.7422 150.127 81.6495 150.034 81.5548 150.034C80.8958 149.657 79.8622 149.469 79.298 149.657C79.0159 149.752 78.639 149.657 78.5464 149.279C78.4516 148.997 78.5464 148.619 78.9232 148.526C79.9569 148.149 81.4621 148.526 82.2137 148.997C82.3084 148.997 83.3421 149.657 83.1547 150.315C82.9673 150.502 82.6852 150.692 82.4031 150.692H82.4011Z" fill="#2E2020"/>
<path d="M106.184 142.312C106.089 142.312 105.997 142.312 105.902 142.217C105.62 142.029 105.433 141.747 105.62 141.369C105.715 141.181 105.807 140.899 105.807 140.709C105.807 140.614 105.902 140.427 105.902 140.332C106.184 139.484 105.807 139.201 104.868 138.448C103.835 137.601 102.424 136.47 102.801 133.834C102.801 133.457 103.178 133.269 103.46 133.269C103.837 133.269 104.024 133.647 104.024 133.929C103.742 135.812 104.683 136.565 105.622 137.413C106.468 138.073 107.502 139.014 107.033 140.614C107.033 140.709 106.938 140.897 106.938 140.992L106.656 141.839C106.561 142.122 106.374 142.31 106.186 142.31L106.184 142.312Z" fill="#2E2020"/>
<path d="M90.1085 132.048H89.9211C89.639 131.953 89.4516 131.578 89.5443 131.295C89.9211 130.072 91.2369 129.035 92.9274 128.564C94.2432 128.187 95.9358 128.094 97.0642 129.035C97.3463 129.222 97.3463 129.6 97.159 129.882C96.9716 130.165 96.5948 130.165 96.3127 129.977C95.7485 129.507 94.5274 129.412 93.3042 129.79C91.9885 130.167 90.9548 130.92 90.7653 131.673C90.5779 131.861 90.2958 132.05 90.1064 132.05L90.1085 132.048Z" fill="#2E2020"/>
<path d="M97.7232 121.032H97.6284C97.2516 120.937 97.0642 120.654 97.159 120.279C97.2537 119.619 96.7821 118.678 96.0305 118.018C95.7485 117.831 95.0916 117.265 94.4327 117.548C94.1506 117.643 93.7737 117.548 93.6811 117.171C93.5863 116.888 93.6811 116.511 94.0579 116.418C94.9042 116.135 95.9379 116.323 96.8769 117.171C97.8179 117.923 98.6621 119.336 98.4748 120.654C98.2874 120.842 98.0053 121.032 97.7232 121.032Z" fill="#2E2020"/>
<path d="M83.3421 128.377C83.06 128.377 82.7779 128.094 82.6832 127.812C82.6832 127.434 82.9653 127.152 83.2474 127.152H83.999C84.8453 127.152 85.22 127.152 85.879 126.681C86.8179 126.116 87.2895 124.986 87.759 123.856C88.2285 122.632 88.7927 121.407 89.9211 120.559C90.86 119.899 92.9295 119.147 94.4327 119.619C95.1842 119.901 95.7485 120.372 96.0305 121.125C96.1253 121.407 96.0305 121.785 95.6537 121.877C95.3716 121.972 94.9948 121.877 94.9021 121.5C94.7148 121.123 94.5253 120.84 94.0558 120.747C93.0221 120.465 91.4242 120.935 90.5779 121.5C89.7316 122.065 89.2621 123.195 88.8853 124.231C88.3211 125.549 87.8516 126.867 86.5358 127.62C85.5969 128.28 84.8432 128.28 83.9969 128.28C83.8095 128.375 83.6201 128.375 83.338 128.375L83.3421 128.377Z" fill="#2E2020"/>
<path d="M78.6411 139.203C78.359 139.203 78.0769 139.016 78.0769 138.638C78.0769 138.261 78.2643 137.978 78.6411 137.978C82.4011 137.601 83.999 136 83.8116 132.706C83.8116 132.329 84.0937 132.046 84.3758 132.046C84.7526 132.046 85.0347 132.329 85.0347 132.611C85.2221 136.565 83.1547 138.731 78.6432 139.201L78.6411 139.203Z" fill="#2E2020"/>
<path d="M79.2053 144.1H78.9232C78.5464 144.1 78.359 143.817 78.359 143.44C78.359 143.063 78.6411 142.875 79.0179 142.875C79.8642 142.97 80.7105 142.592 81.3674 141.839C81.8369 141.274 82.4011 140.334 82.2137 138.826C82.2137 138.448 82.4011 138.166 82.7779 138.166C83.1547 138.166 83.4368 138.354 83.4368 138.731C83.6242 140.332 83.2494 141.745 82.3084 142.78C81.4621 143.628 80.3337 144.098 79.2074 144.098L79.2053 144.1Z" fill="#2E2020"/>
<path d="M246.056 139.769H245.868C245.586 139.674 245.399 139.298 245.491 139.016C246.338 136.285 247.936 133.649 249.816 131.953C250.098 131.766 250.474 131.766 250.662 132.048C250.849 132.331 250.849 132.708 250.567 132.896C248.875 134.402 247.371 136.85 246.62 139.393C246.62 139.581 246.338 139.771 246.056 139.771V139.769Z" fill="#2E2020"/>
<path d="M256.489 171.312C256.207 171.312 255.925 171.124 255.925 170.842C255.83 170.559 256.02 170.182 256.395 170.089C256.959 169.901 257.428 169.806 257.71 169.619C257.992 169.431 258.369 169.619 258.557 169.901C258.744 170.184 258.557 170.561 258.274 170.749C257.898 170.937 257.336 171.126 256.677 171.314H256.489V171.312Z" fill="#2E2020"/>
<path d="M251.037 171.877C249.721 171.782 248.498 171.595 247.371 171.217C245.961 170.747 244.832 169.804 243.893 168.486C243.706 168.204 243.799 167.826 243.988 167.639C244.27 167.451 244.647 167.544 244.835 167.733C245.586 168.864 246.62 169.617 247.748 169.994C248.687 170.372 249.816 170.559 251.039 170.559C251.415 170.559 251.603 170.842 251.603 171.219C251.698 171.69 251.415 171.879 251.039 171.879L251.037 171.877Z" fill="#2E2020"/>
<path d="M242.578 164.345C242.296 164.345 242.013 164.157 242.013 163.874C240.885 158.978 241.544 153.611 242.86 151.54C243.047 151.257 243.424 151.162 243.706 151.352C243.988 151.542 244.083 151.917 243.893 152.2C242.672 153.988 242.201 159.167 243.235 163.594C243.329 163.971 243.14 164.254 242.765 164.347H242.578V164.345Z" fill="#2E2020"/>
<path d="M273.409 164.627C272.94 164.627 272.563 164.532 272.188 164.439C271.529 164.157 271.154 163.779 270.967 163.121C270.872 162.839 271.062 162.461 271.437 162.369C271.811 162.276 272.095 162.463 272.188 162.839C272.188 163.027 272.283 163.121 272.658 163.309C273.597 163.687 275.197 163.214 275.759 162.839C277.733 161.426 279.049 159.638 279.424 157.849C279.611 156.909 279.424 156.154 278.954 155.589C278.578 155.119 277.921 155.024 277.074 155.118C276.792 155.213 276.51 155.306 276.228 155.589C275.946 155.776 275.759 155.966 275.382 156.059C275.1 156.154 274.723 156.059 274.536 155.682C274.441 155.399 274.536 155.022 274.912 154.834C275.1 154.739 275.289 154.646 275.477 154.456C275.853 154.174 276.228 153.891 276.792 153.796C278.013 153.609 279.049 153.891 279.706 154.644C280.458 155.397 280.74 156.622 280.458 157.94C279.988 160.011 278.483 162.177 276.321 163.685C275.851 164.155 274.536 164.627 273.407 164.627H273.409Z" fill="#2E2020"/>
<path d="M273.786 160.483L273.317 160.106L272.94 159.541C273.973 158.693 275.102 157.752 276.7 157.845C277.077 157.845 277.264 158.128 277.264 158.505C277.264 158.883 276.982 159.07 276.605 159.07C275.477 158.976 274.63 159.73 273.786 160.483Z" fill="#2E2020"/>
<path d="M246.056 155.024C245.773 155.024 245.586 154.836 245.491 154.646C245.397 154.551 244.27 151.728 245.397 150.41C245.773 150.032 246.243 149.657 246.807 149.374C248.218 148.432 248.782 147.961 248.123 146.831C247.936 146.548 248.028 146.171 248.31 145.983C248.592 145.796 248.969 145.888 249.157 146.171C250.472 148.432 248.687 149.655 247.464 150.408C246.995 150.69 246.618 150.973 246.336 151.255C245.959 151.633 246.241 153.138 246.618 154.174C246.712 154.456 246.618 154.834 246.241 155.022C246.241 154.927 246.146 155.022 246.053 155.022L246.056 155.024Z" fill="#2E2020"/>
<path d="M247.936 143.912C247.653 143.912 247.371 143.725 247.371 143.442C247.184 143.159 245.868 143.254 245.491 143.537C245.209 143.725 244.832 143.632 244.645 143.349C244.458 143.067 244.55 142.689 244.832 142.502C245.491 142.031 246.9 141.841 247.746 142.219C248.216 142.407 248.498 142.784 248.592 143.162C248.687 143.539 248.405 143.822 248.123 143.914H247.936V143.912Z" fill="#2E2020"/>
<path d="M273.597 157.377C273.502 157.377 273.409 157.377 273.314 157.282C272.938 157 272.563 156.812 272.186 156.622C271.152 156.057 270.119 155.492 269.178 154.362C266.733 151.538 265.794 147.959 264.853 144.568C264.195 142.308 263.632 139.954 262.504 137.883C260.342 133.74 258.367 131.481 254.702 131.856C254.325 131.856 254.043 131.669 254.043 131.291C254.043 130.914 254.23 130.631 254.607 130.631C259.401 130.066 261.75 133.737 263.63 137.316C264.759 139.482 265.416 141.93 266.075 144.284C267.013 147.672 267.86 150.969 270.211 153.605C271.058 154.547 271.904 155.017 272.938 155.583C273.315 155.77 273.689 156.053 274.066 156.243C274.348 156.43 274.443 156.808 274.253 157.09C274.066 157.278 273.784 157.373 273.595 157.373L273.597 157.377Z" fill="#2E2020"/>
<path d="M253.95 130.543C253.856 130.543 253.668 130.543 253.573 130.448C253.291 130.26 253.291 129.882 253.479 129.6C255.546 126.774 260.811 125.834 263.538 125.834C263.915 125.834 264.102 126.116 264.102 126.494C264.102 126.871 263.82 127.154 263.443 127.059C260.811 126.964 256.11 127.999 254.42 130.26C254.325 130.448 254.138 130.543 253.95 130.543Z" fill="#2E2020"/>
<path d="M243.235 145.325C243.14 145.325 243.047 145.325 242.952 145.23C241.824 144.57 241.26 142.687 240.978 141.559C240.131 138.358 240.978 134.779 243.14 131.673C245.771 127.812 250.472 125.176 257.428 123.575C258.087 123.387 258.744 123.198 259.403 123.105C262.034 122.352 264.384 121.692 267.3 122.54C267.582 122.634 267.769 123.01 267.677 123.292C267.584 123.575 267.207 123.763 266.925 123.67C264.386 122.917 262.131 123.482 259.687 124.235L257.712 124.8C251.039 126.401 246.62 128.849 244.083 132.428C242.108 135.346 241.357 138.548 242.108 141.278C242.39 142.219 242.767 143.822 243.519 144.292C243.801 144.48 243.896 144.857 243.706 145.14C243.611 145.234 243.424 145.327 243.237 145.327L243.235 145.325Z" fill="#2E2020"/>
<path d="M276.982 164.25C276.7 164.25 276.418 164.062 276.418 163.685C276.418 163.307 276.605 163.024 276.982 163.024C285.818 161.894 288.167 150.03 287.885 144.758C287.321 134.212 284.877 126.679 275.007 124.043C273.314 123.573 271.906 123.666 270.119 123.666H269.46C269.083 123.666 268.801 123.383 268.801 123.101C268.801 122.723 269.083 122.441 269.365 122.441H270.024C271.809 122.346 273.407 122.346 275.287 122.818C286.567 125.832 288.542 135.06 289.106 144.663C289.293 150.5 286.757 163.024 276.98 164.248L276.982 164.25Z" fill="#2E2020"/>
<path d="M106.841 123.103C106.372 123.008 106.182 122.725 106.277 122.443C106.841 118.299 106.559 115.38 103.458 112.744C102.612 111.991 101.578 111.802 100.449 111.521C98.7569 111.051 96.9716 110.578 96.0305 108.508C95.9358 108.225 96.0305 107.848 96.3127 107.66C96.5948 107.565 96.9716 107.66 97.159 107.942C97.8179 109.543 99.2263 109.921 100.732 110.296C101.953 110.578 103.176 110.956 104.209 111.802C108.157 115.098 107.969 118.957 107.405 122.63C107.405 122.913 107.123 123.101 106.841 123.101V123.103Z" fill="#2E2020"/>
<path d="M79.2053 112.557C78.9232 112.557 78.5464 112.557 78.1716 112.462C77.7968 112.367 77.6074 112.084 77.6074 111.802C77.7021 111.424 77.9842 111.236 78.2663 111.236C80.241 111.519 81.3674 110.766 82.6852 110.013C83.7189 109.353 84.7526 108.695 86.3505 108.508C88.5126 108.225 90.6747 108.603 92.7421 108.978C93.4937 109.166 94.2453 109.26 94.9989 109.355C95.3757 109.45 95.5631 109.733 95.5631 110.015C95.4684 110.393 95.1863 110.581 94.9042 110.581C94.1526 110.486 93.3063 110.298 92.5547 110.203C90.58 109.826 88.5126 109.45 86.5379 109.733C85.2221 109.921 84.3758 110.486 83.3421 111.051C82.2137 111.804 80.9926 112.557 79.2053 112.557Z" fill="#2E2020"/>
<path d="M69.1484 123.385C69.0537 123.385 68.9611 123.385 68.8663 123.29C68.5842 123.103 68.4895 122.725 68.679 122.443C69.2432 121.595 69.7126 120.559 70.1821 119.619C71.6853 116.513 73.4726 112.934 77.8895 112.934C78.2663 112.934 78.5484 113.217 78.5484 113.594C78.5484 113.971 78.2663 114.254 77.8895 114.254C74.2242 114.254 72.8137 117.173 71.2158 120.281C70.7463 121.316 70.1821 122.352 69.6179 123.2C69.5232 123.294 69.3358 123.387 69.1484 123.387V123.385Z" fill="#2E2020"/>
<path d="M66.5148 142.312C66.4201 142.312 66.2327 142.217 66.138 142.124C65.8559 141.936 65.8559 141.559 66.0433 141.276C67.1717 139.863 67.1717 138.828 66.7022 137.415C66.6075 137.133 66.7969 136.755 67.079 136.662C67.3611 136.567 67.7379 136.757 67.8306 137.04C68.3001 138.545 68.4895 140.146 66.8916 142.029C66.7969 142.217 66.7042 142.312 66.5148 142.312Z" fill="#2E2020"/>
<path d="M73.66 148.526C72.1568 148.526 71.1211 148.056 70.3695 147.208C69.5232 146.173 69.2411 144.665 69.6179 142.312C69.7127 141.934 69.9947 141.747 70.2768 141.747C70.6537 141.841 70.841 142.124 70.841 142.407C70.5589 144.29 70.7463 145.608 71.4053 146.268C71.8747 146.833 72.6263 147.116 73.7547 147.116C74.1316 147.116 74.319 147.398 74.319 147.776C74.2242 148.246 74.0368 148.528 73.66 148.528V148.526Z" fill="#2E2020"/>
<path fill-rule="evenodd" clip-rule="evenodd" d="M94.0579 138.075C93.7758 136.945 94.1526 135.815 94.9969 135.627C95.8432 135.344 96.7821 136.097 97.159 137.227C97.5358 138.358 97.0642 139.488 96.22 139.676C95.3737 139.958 94.4347 139.205 94.0579 138.075Z" fill="#2E2020"/>
<path fill-rule="evenodd" clip-rule="evenodd" d="M105.902 135.344C105.62 134.214 105.997 133.084 106.841 132.896C107.687 132.613 108.626 133.366 109.003 134.497C109.38 135.627 108.908 136.757 108.064 136.945C107.22 137.133 106.279 136.475 105.902 135.344Z" fill="#2E2020"/>
<path fill-rule="evenodd" clip-rule="evenodd" d="M257.241 150.975C257.523 149.939 257.146 148.904 256.3 148.621C255.453 148.434 254.607 149.092 254.325 150.127C254.043 151.162 254.42 152.198 255.264 152.48C256.11 152.668 256.957 152.01 257.239 150.975H257.241Z" fill="#2E2020"/>
<path fill-rule="evenodd" clip-rule="evenodd" d="M247.184 149.092C247.466 148.056 247.089 147.021 246.245 146.738C245.399 146.55 244.552 147.208 244.27 148.244C243.988 149.279 244.365 150.315 245.211 150.597C245.963 150.785 246.904 150.127 247.186 149.092H247.184Z" fill="#2E2020"/>
<path d="M81.5548 166.603C81.4601 166.603 81.3674 166.603 81.2727 166.508C80.9906 166.321 80.8959 165.943 80.9906 165.661C82.0243 163.682 81.3674 160.011 80.8032 156.998C80.6158 155.867 80.4264 154.927 80.3337 154.079C80.3337 153.701 80.5211 153.419 80.8979 153.419C81.2747 153.419 81.5568 153.607 81.5568 153.984C81.6516 154.737 81.8389 155.772 82.0263 156.81C82.5905 160.011 83.3421 163.965 82.121 166.226C82.0263 166.508 81.8389 166.603 81.5568 166.603H81.5548Z" fill="#2E2020"/>
<path d="M108.064 172.065C107.782 172.065 107.595 171.877 107.5 171.687C106.089 168.016 106.372 163.872 106.654 160.106C106.654 159.728 106.936 159.541 107.313 159.541C107.689 159.541 107.877 159.823 107.877 160.201C107.595 163.779 107.313 167.828 108.628 171.217C108.723 171.5 108.628 171.877 108.252 171.97C108.157 172.065 108.064 172.065 108.064 172.065Z" fill="#2E2020"/>
<path d="M101.108 189.013C100.826 189.013 100.544 188.826 100.544 188.543C99.1337 183.176 94.9989 180.633 90.6747 178.092C88.2305 176.586 85.7863 175.078 83.6242 173.008C82.121 171.502 79.5821 168.581 79.7695 166.135C79.8642 165.192 80.3337 164.439 81.2727 163.781C81.5548 163.594 81.9316 163.687 82.119 163.969C82.3064 164.252 82.2137 164.629 81.9316 164.817C81.3674 165.194 81.0853 165.665 80.9926 166.23C80.8053 167.643 82.121 169.808 84.4705 172.067C86.4452 174.045 88.8894 175.551 91.2389 176.964C95.5631 179.6 100.075 182.331 101.673 188.168C101.767 188.45 101.578 188.828 101.203 188.921C101.298 189.015 101.203 189.015 101.108 189.015V189.013Z" fill="#2E2020"/>
<path d="M101.578 190.144C101.201 190.144 101.014 189.861 100.919 189.579V189.013C100.824 186.19 100.824 183.269 102.235 180.633C102.986 179.22 104.115 177.902 105.148 176.584C106.652 174.701 108.062 173.005 108.721 170.84C108.908 170.087 108.908 166.603 108.062 165.755C107.967 165.661 107.78 165.568 107.593 165.661C107.311 165.755 106.934 165.566 106.841 165.19C106.746 164.908 106.936 164.53 107.311 164.437C107.875 164.25 108.532 164.437 108.908 164.908C110.224 166.321 110.129 170.369 109.849 171.217C109.191 173.571 107.593 175.549 106.089 177.432C105.056 178.75 104.022 179.88 103.363 181.293C102.142 183.646 102.142 186.377 102.235 189.108V189.673C102.14 189.861 101.953 190.051 101.576 190.144H101.578Z" fill="#2E2020"/>
<path d="M87.2895 189.201C87.1948 189.201 87.1021 189.201 87.0074 189.106C85.6916 188.636 84.5632 186.093 83.3421 183.362C83.1547 182.892 82.9653 182.514 82.8726 182.326C82.4958 181.574 82.121 180.821 81.6516 179.973C78.7379 174.511 74.7905 166.979 80.5231 162.272C80.8053 162.084 81.1821 162.084 81.3695 162.367C81.5568 162.649 81.5568 163.027 81.2747 163.214C76.2937 167.263 79.9589 174.231 82.6852 179.315C83.1547 180.163 83.5316 181.01 83.9063 181.763C84.001 182.046 84.1884 182.423 84.3758 182.894C84.8453 184.024 86.0684 186.943 87.0074 187.79C87.3842 187.13 88.0411 185.53 88.3232 184.684C88.7927 183.461 88.9821 183.083 89.0748 182.896C90.9548 180.352 92.74 181.013 94.8095 181.765L95.6558 182.048C95.9379 182.143 96.1253 182.518 96.0326 182.801C95.9399 183.083 95.5631 183.271 95.281 183.178L94.4347 182.896C92.3673 182.143 91.4263 181.765 90.1105 183.649C90.0158 183.743 89.7337 184.496 89.5463 185.154C88.4179 188.261 87.9484 189.203 87.2895 189.203V189.201Z" fill="#2E2020"/>
<path d="M111.26 186.282C110.883 186.282 110.601 186.095 109.098 183.081C108.252 181.386 106.936 179.692 106.089 179.692C105.62 179.692 105.338 180.258 105.15 180.728C104.963 181.01 104.681 181.198 104.304 181.01C104.022 180.823 103.835 180.54 104.022 180.163C104.586 179.032 105.243 178.467 106.089 178.467C108.064 178.467 109.849 181.856 110.132 182.611C110.319 182.988 110.601 183.646 110.978 184.212C111.165 183.176 111.165 181.763 110.978 180.068C110.696 177.807 110.883 176.019 111.073 174.231C111.26 172.065 111.449 169.994 110.696 167.168C110.132 165.097 109.38 163.119 107.877 163.024C107.5 163.024 107.313 162.742 107.313 162.364C107.313 161.987 107.595 161.799 107.972 161.799C110.603 161.987 111.544 165.283 111.919 166.884C112.67 169.802 112.483 172.063 112.296 174.321C112.108 176.017 112.014 177.71 112.201 179.876C112.483 182.607 112.388 184.49 111.824 185.808C111.824 186.091 111.542 186.278 111.26 186.278V186.282Z" fill="#2E2020"/>
<path d="M69.7106 170.935C68.4895 170.935 67.1717 170.652 65.8559 170.369C64.9148 170.182 63.9759 169.899 63.1296 169.899C61.2496 169.711 58.4306 169.994 55.6096 170.277C51.2854 170.654 47.1506 171.029 45.458 170.089C45.1759 169.901 45.0812 169.524 45.1759 169.241C45.3633 168.959 45.7401 168.864 46.0222 168.959C47.338 169.619 51.6622 169.336 55.4222 168.959C58.4306 168.676 61.1569 168.488 63.1296 168.581C64.0685 168.676 65.0096 168.864 66.0433 169.146C67.6411 169.524 69.3338 169.899 70.6496 169.617C71.3085 169.429 72.1527 169.051 73.0938 168.676C74.6916 168.016 76.2895 167.263 77.6053 167.453C77.9822 167.548 78.1695 167.83 78.0748 168.113C77.9801 168.49 77.698 168.678 77.4159 168.583C76.4769 168.396 74.9717 169.054 73.6559 169.714C72.7169 170.184 71.7759 170.561 70.9296 170.749C70.6475 170.844 70.178 170.937 69.7085 170.937L69.7106 170.935Z" fill="#2E2020"/>
<path d="M55.5169 206.715C55.2348 206.715 54.9527 206.527 54.9527 206.244C54.3885 203.138 29.3843 191.744 19.8917 187.978L19.1401 187.695C15.3801 186.19 11.0559 184.494 9.27063 180.35C7.95484 177.432 11.4327 171.5 19.799 162.367C31.079 149.937 51.759 131.766 53.3569 132.236C56.5527 133.271 61.6284 145.888 60.9716 148.149C60.5021 149.655 58.6221 151.82 56.2726 154.551C53.3589 157.94 49.6937 162.179 47.06 167.073C46.4011 168.297 45.8389 169.522 45.2747 170.745C42.6432 176.299 39.9168 181.949 32.679 183.174C32.3021 183.269 32.02 182.986 31.9274 182.704C31.8327 182.326 32.1148 182.044 32.3969 181.951C38.9758 180.821 41.5147 175.641 44.0537 170.182C44.6179 168.959 45.2747 167.639 45.9337 166.415C48.5652 161.426 52.3252 157.094 55.2389 153.704C57.401 151.16 59.281 148.997 59.6578 147.677C60.1273 146.076 55.7105 134.589 52.9842 133.364C50.3526 134.777 16.5126 163.495 10.8726 176.112C10.1211 177.712 9.93367 178.935 10.3084 179.69C11.9063 183.362 15.761 184.87 19.521 186.375L20.2726 186.658C20.6495 186.753 55.241 201.063 56.0873 205.867C56.182 206.244 55.8999 206.527 55.6178 206.62L55.5231 206.715H55.5169Z" fill="#2E2020"/>
<path d="M150.833 195.698C150.55 195.698 150.363 195.511 150.268 195.321C149.892 194.191 149.609 192.778 149.235 191.272C148.67 188.636 148.014 185.622 146.885 183.927C142.186 177.147 133.725 175.264 125.641 173.476C120.94 172.44 116.146 171.405 112.199 169.427C111.917 169.239 111.729 168.862 111.917 168.579C112.104 168.297 112.481 168.109 112.763 168.297C116.618 170.18 121.129 171.215 125.923 172.251C134.289 174.134 143.03 176.017 147.919 183.172C149.235 185.055 149.894 188.162 150.55 190.987C150.833 192.4 151.209 193.813 151.492 194.849C151.586 195.131 151.397 195.509 151.115 195.601C150.927 195.601 150.833 195.696 150.833 195.696V195.698Z" fill="#2E2020"/>
<path d="M125.359 266.976C124.23 266.976 123.102 266.881 122.068 266.693C121.317 266.598 120.847 266.033 120.565 265.563C120.378 265.28 120.096 265.093 119.906 264.998C119.624 264.903 119.437 264.528 119.529 264.245C119.622 263.962 119.999 263.775 120.281 263.868C120.845 264.055 121.127 264.433 121.502 264.81C121.784 265.188 122.066 265.47 122.254 265.47C124.603 265.848 127.33 265.658 129.961 265.47C132.5 265.283 134.755 265.283 137.012 265.283C139.925 265.283 142.934 265.377 145.847 265C152.052 264.057 155.906 262.834 157.315 261.234C159.759 258.315 159.1 254.266 158.348 250.405C158.161 249.275 157.972 248.144 157.879 247.109C156.845 236.845 154.214 217.921 152.521 208.41C152.426 208.033 152.708 207.75 152.991 207.657C153.367 207.562 153.649 207.845 153.742 208.128C155.34 217.638 158.066 236.658 159.1 246.921C159.195 247.957 159.382 248.992 159.569 250.122C160.228 254.076 161.073 258.598 158.254 261.892C156.186 264.435 150.264 265.563 146.033 266.128C143.024 266.598 140.016 266.506 137.01 266.506H134.283C132.967 266.506 131.557 266.601 130.054 266.693C128.456 266.881 126.858 266.976 125.353 266.976H125.359Z" fill="#2E2020"/>
<path d="M121.412 264.717C120.753 264.717 119.814 264.435 119.155 263.117C118.967 262.834 119.155 262.457 119.437 262.269C119.719 262.081 120.096 262.269 120.283 262.552C120.753 263.494 121.317 263.494 121.412 263.494C122.258 263.494 123.386 262.271 123.856 261.234C126.864 254.454 127.428 249.652 125.548 247.674C125.266 247.391 125.266 247.014 125.548 246.826C125.83 246.544 126.207 246.544 126.395 246.826C129.403 249.84 127.241 256.62 124.984 261.704C124.42 263.117 122.917 264.717 121.412 264.717Z" fill="#2E2020"/>
<path d="M131.845 265.941C131.658 265.941 131.563 265.846 131.376 265.753C131.094 265.47 131.094 265.093 131.376 264.905C132.504 263.775 133.538 260.574 133.915 256.995C134.291 253.134 133.82 250.027 132.599 248.897C132.222 248.52 131.283 248.427 130.531 248.332C130.062 248.237 129.593 248.237 129.216 248.144C128.934 248.049 128.557 247.957 128.275 247.767C127.616 247.484 126.959 247.202 126.489 247.389C126.207 247.484 125.83 247.294 125.738 247.012C125.645 246.729 125.833 246.352 126.115 246.259C127.056 245.976 127.995 246.354 128.746 246.637C129.028 246.731 129.31 246.824 129.498 246.919C129.78 247.014 130.157 247.014 130.531 247.107C131.565 247.202 132.694 247.389 133.352 248.049C135.42 250.12 135.232 255.112 134.95 257.183C134.574 260.384 133.635 264.338 132.037 265.846C132.224 265.846 132.037 265.941 131.849 265.941H131.845Z" fill="#2E2020"/>
<path d="M133.82 248.899C133.443 248.899 133.161 248.617 133.161 248.239C133.161 245.979 135.605 245.508 137.298 245.133C137.957 245.038 138.519 244.85 138.896 244.663C140.117 244.097 141.153 243.532 142.186 242.874C145.664 240.803 148.673 239.013 153.089 243.534C153.371 243.817 153.371 244.194 153.089 244.382C152.807 244.665 152.43 244.665 152.243 244.382C148.483 240.616 146.226 241.934 142.843 243.912C141.809 244.572 140.681 245.135 139.46 245.7C138.99 245.888 138.332 246.078 137.675 246.17C135.795 246.548 134.479 246.923 134.479 248.054C134.479 248.619 134.197 248.901 133.82 248.901V248.899Z" fill="#2E2020"/>
<path d="M126.487 250.122C123.761 249.935 121.129 248.051 120.47 246.921C119.155 244.943 118.026 242.685 116.993 240.519C116.428 239.389 115.864 238.258 115.3 237.223C114.359 235.435 112.951 234.116 111.445 232.796C110.881 232.326 110.317 231.761 109.753 231.196C109.471 230.913 109.188 230.443 108.814 229.878C108.439 229.313 107.685 228.09 107.403 228.09H107.216C106.934 228.277 106.746 228.842 106.652 229.22C106.369 230.82 107.311 232.798 108.062 234.116C108.532 234.964 109.001 235.622 109.473 236.377C110.601 238.073 111.54 239.483 111.822 242.214C111.822 242.592 111.635 242.874 111.258 242.874C110.881 242.874 110.599 242.687 110.599 242.309C110.317 239.861 109.565 238.638 108.437 237.037C107.967 236.377 107.496 235.624 107.026 234.777C106.18 233.271 105.052 231.01 105.428 229.032C105.523 228.372 105.898 227.526 106.462 227.054C106.839 226.866 107.214 226.772 107.591 226.866C108.437 227.054 109.094 228.184 109.847 229.22C110.13 229.69 110.412 230.162 110.599 230.35C111.163 230.915 111.727 231.386 112.292 231.951C113.795 233.364 115.3 234.774 116.428 236.752C116.993 237.788 117.557 238.918 118.121 240.141C119.155 242.212 120.283 244.473 121.599 246.356C122.068 247.016 124.231 248.804 126.58 248.992C126.957 248.992 127.144 249.275 127.144 249.652C127.144 249.935 126.862 250.122 126.485 250.122H126.487Z" fill="#2E2020"/>
<path d="M110.319 242.967C109.755 242.967 109.098 242.872 108.157 242.59H107.969C104.115 241.93 101.765 238.353 99.8853 235.527L99.6979 235.245C99.5105 234.962 99.6032 234.585 99.8853 234.397C100.167 234.209 100.544 234.302 100.732 234.585L100.919 234.867C102.704 237.691 104.774 240.894 108.157 241.457C108.252 241.457 108.344 241.457 108.439 241.552C109.849 241.835 110.319 241.835 110.506 241.835C110.694 241.647 110.976 241.647 111.258 241.74C111.54 241.928 111.635 242.305 111.445 242.588C111.258 242.775 110.881 242.965 110.317 242.965L110.319 242.967Z" fill="#2E2020"/>
<path d="M101.765 248.617C101.483 248.617 101.296 248.429 101.201 248.146C100.919 247.299 99.3211 244.663 98.8516 243.91C98.7569 243.722 98.5695 243.532 98.4748 243.345C97.159 241.461 94.8095 237.883 95.5611 235.434C95.8432 234.492 96.5 233.834 97.4411 233.456C98.1926 233.174 99.4158 232.986 100.542 232.796C101.201 232.702 101.858 232.609 102.327 232.514C102.61 232.419 102.986 232.609 103.079 232.984C103.174 233.267 102.984 233.644 102.61 233.737C102.14 233.832 101.481 233.925 100.73 234.114C99.6958 234.302 98.4727 234.492 97.9085 234.68C97.2496 234.962 96.8748 235.34 96.6874 235.903C96.1232 237.786 98.38 241.175 99.4137 242.775C99.6011 242.963 99.6958 243.153 99.7905 243.34C100.073 243.718 101.953 246.824 102.329 247.86C102.424 248.142 102.235 248.52 101.953 248.613C101.953 248.613 101.858 248.613 101.765 248.613V248.617Z" fill="#2E2020"/>
<path d="M98.2874 252.476C98.1 252.476 97.8179 252.381 97.7232 252.193C97.5358 251.816 97.3463 251.533 97.159 251.158C96.8769 250.687 96.6895 250.215 96.4074 249.745C96.22 249.462 95.7484 248.802 95.0916 248.144C92.9295 245.601 90.0158 242.025 91.3316 239.952C92.0832 238.821 93.2116 238.634 94.34 238.446L95.4684 238.163C95.7505 238.068 96.1273 238.258 96.22 238.541C96.3126 238.823 96.1253 239.201 95.8432 239.294C95.4663 239.389 94.9969 239.481 94.6221 239.576C93.6831 239.764 92.8368 239.954 92.46 240.612C91.6137 241.93 94.7168 245.508 96.1253 247.297C96.7842 248.049 97.3463 248.709 97.5358 249.085C97.8179 249.555 98.1 250.027 98.2874 250.498C98.4748 250.875 98.6642 251.158 98.8516 251.533C99.039 251.816 98.9463 252.193 98.5695 252.381C98.4748 252.476 98.3821 252.476 98.2874 252.476Z" fill="#2E2020"/>
<path d="M96.9716 256.432C96.8769 256.432 96.7842 256.432 96.6895 256.337C96.0305 255.96 95.5611 255.207 95.1863 254.549C94.9989 254.266 94.8095 253.889 94.6221 253.701L94.1526 253.136C91.9905 250.688 89.7337 247.864 90.0158 245.791C90.1105 244.943 90.8621 244.378 91.4263 244.003C91.6137 243.815 91.8031 243.72 91.9905 243.532C92.2726 243.25 92.6494 243.345 92.8368 243.532C93.1189 243.815 93.0242 244.192 92.8368 244.38C92.6494 244.568 92.46 244.757 92.1779 244.945C91.7084 245.228 91.3316 245.605 91.2389 245.981C90.9568 247.676 93.6831 250.782 95.0936 252.29L95.5631 252.855C95.7505 253.138 96.0326 253.42 96.222 253.798C96.5989 254.363 96.9736 254.928 97.3505 255.116C97.6326 255.304 97.7273 255.681 97.5378 255.964C97.4431 256.246 97.2557 256.434 96.9736 256.434L96.9716 256.432Z" fill="#2E2020"/>
<path d="M122.822 263.399C122.635 263.399 122.445 263.304 122.353 263.212C120.66 261.329 112.67 260.668 110.414 260.763C109.849 260.763 109.193 260.763 108.628 260.858C103.176 261.046 98.5695 261.236 94.34 256.714L93.401 255.772C91.521 253.984 88.7947 251.345 90.9568 248.992C91.1442 248.709 91.6157 248.709 91.8031 248.992C92.0852 249.18 92.0852 249.652 91.8031 249.84C90.5821 251.158 92.18 252.946 94.2473 254.924C94.6242 255.302 94.9989 255.584 95.281 255.96C99.041 260.008 103.27 259.914 108.628 259.726C109.193 259.726 109.849 259.726 110.414 259.631C111.729 259.536 121.035 259.914 123.292 262.55C123.479 262.832 123.479 263.21 123.292 263.397C123.104 263.302 123.009 263.397 122.822 263.397V263.399Z" fill="#2E2020"/>
<path d="M101.578 232.796H101.483C101.106 232.702 100.919 232.419 101.014 232.044C101.578 229.03 101.483 223.851 101.296 219.709C101.296 218.203 101.201 216.791 101.201 215.66C101.201 212.837 101.296 210.011 101.388 207.28C101.576 201.535 101.858 195.511 101.012 189.766C100.917 189.389 101.199 189.106 101.576 189.106C101.953 189.011 102.235 189.294 102.235 189.671C103.081 195.603 102.799 201.63 102.612 207.468C102.517 210.198 102.424 213.022 102.424 215.753C102.424 216.883 102.424 218.296 102.519 219.707C102.614 223.944 102.801 229.123 102.142 232.324C102.142 232.607 101.86 232.794 101.578 232.794V232.796Z" fill="#2E2020"/>
<path d="M98.6642 287.786C98.5695 287.786 98.3821 287.786 98.2874 287.691C98.0053 287.503 98.0053 287.126 98.1926 286.843C99.039 285.713 98.2874 281.288 98.0053 279.31C97.9105 278.933 97.9105 278.65 97.8179 278.37C97.7232 277.992 98.0053 277.71 98.3821 277.71C98.7589 277.71 99.041 277.897 99.041 278.275C99.041 278.463 99.1357 278.84 99.2284 279.218C99.7926 282.514 100.262 286.28 99.2284 287.691C99.041 287.691 98.8516 287.786 98.6642 287.786Z" fill="#2E2020"/>
<path d="M102.047 288.351C81.4621 288.256 55.8937 284.679 53.4495 282.231C52.8853 281.666 52.7906 278.747 52.7906 259.821C52.7906 240.894 52.7906 214.907 51.098 203.138C51.0033 202.761 51.2854 202.478 51.6622 202.478C52.039 202.383 52.3211 202.666 52.3211 203.043C54.0137 214.907 54.0137 240.894 54.0137 259.916C54.0137 270.367 54.0137 280.253 54.3906 281.571C56.8348 283.549 81.3695 287.22 102.049 287.315C116.525 287.41 129.121 284.492 130.062 283.549C130.344 282.984 130.249 279.5 130.157 276.676C130.062 274.698 129.969 272.44 129.969 270.367C129.969 269.989 130.251 269.802 130.628 269.802C131.005 269.802 131.287 270.084 131.192 270.462C131.192 272.44 131.287 274.606 131.38 276.676C131.567 281.761 131.567 283.739 131.003 284.397C129.405 285.81 115.963 288.351 102.616 288.351H102.047Z" fill="#2E2020"/>
<path d="M92.0832 278.747C91.8958 278.747 91.8011 278.652 91.6137 278.56C91.4263 278.372 91.4263 278.182 91.4263 277.994L96.5968 259.633C96.6915 259.35 97.0663 259.163 97.3484 259.256C97.6305 259.348 97.8179 259.726 97.8179 260.008L92.9295 277.427L130.06 268.952L130.999 266.316C131.094 266.033 131.468 265.846 131.75 265.938C132.033 266.031 132.22 266.409 132.127 266.691L131.094 269.705C130.999 269.892 130.812 270.082 130.624 270.082L92.1779 278.838C92.1779 278.775 92.1463 278.743 92.0832 278.743V278.747Z" fill="#2E2020"/>
<path d="M139.553 245.226H139.365C139.083 245.131 138.896 244.755 138.988 244.473L156.378 196.451L115.677 197.769L104.02 239.199C103.925 239.481 103.551 239.669 103.268 239.669C102.986 239.574 102.704 239.199 102.799 238.916L114.548 196.921C114.643 196.639 114.831 196.451 115.113 196.451L157.224 195.133C157.412 195.133 157.601 195.228 157.694 195.416C157.786 195.603 157.881 195.793 157.788 195.981L140.117 244.848C140.022 245.036 139.74 245.226 139.553 245.226Z" fill="#2E2020"/>
<path d="M101.765 237.505H101.578C101.296 237.41 101.108 237.035 101.108 236.752L112.294 197.206C112.388 197.018 112.576 196.829 112.763 196.736L114.831 196.453C115.207 196.358 115.489 196.641 115.489 196.923C115.584 197.301 115.302 197.584 115.02 197.584L113.422 197.866L102.329 237.035C102.329 237.318 102.047 237.505 101.765 237.505Z" fill="#2E2020"/>
<path d="M91.8958 279.312C91.7084 279.312 91.6137 279.218 91.519 279.125L90.0158 277.807C89.8284 277.619 89.7337 277.429 89.8284 277.147L95.1863 258.315C95.281 258.032 95.6558 257.845 95.9379 257.845C96.22 257.94 96.4074 258.315 96.4074 258.598L91.2369 277.052L92.4579 278.087C92.74 278.275 92.74 278.747 92.5527 278.935C92.1758 279.312 91.9884 279.312 91.8937 279.312H91.8958Z" fill="#2E2020"/>
<path d="M49.0306 340.892C48.6538 340.892 48.4664 340.609 48.3717 340.327C47.9022 321.4 52.5085 284.584 53.3528 281.948C53.4475 281.666 53.8222 281.478 54.1043 281.571C54.3864 281.666 54.5738 282.041 54.4812 282.324C53.6349 284.96 49.0286 321.493 49.5928 340.324C49.6875 340.607 49.4054 340.89 49.0286 340.89C49.0917 340.89 49.0917 340.89 49.0286 340.89L49.0306 340.892Z" fill="#2E2020"/>
<path d="M136.075 341.267C135.698 341.267 135.416 340.89 135.416 340.607C136.449 331.286 132.125 293.716 129.681 284.112C129.586 283.829 129.776 283.452 130.151 283.359C130.433 283.264 130.809 283.454 130.902 283.83C133.346 293.716 137.671 331.191 136.637 340.795C136.637 341.077 136.355 341.265 136.073 341.265L136.075 341.267Z" fill="#2E2020"/>
<path d="M90.1085 343.998C89.7316 343.998 89.4495 343.715 89.4495 343.338C89.919 335.71 93.0221 320.362 101.106 316.974C101.388 316.879 101.765 316.974 101.953 317.351C102.047 317.634 101.953 318.011 101.576 318.199C94.62 321.117 91.2369 334.865 90.6727 343.433C90.7674 343.715 90.4853 343.998 90.1085 343.998Z" fill="#2E2020"/>
<path d="M99.6979 343.81C99.4158 343.81 99.2284 343.623 99.1337 343.433C98.4748 341.55 97.8179 339.196 97.159 336.748C96.0306 332.699 94.9021 328.462 93.7758 326.297C93.5884 326.014 93.6811 325.637 94.0579 325.449C94.34 325.261 94.7168 325.449 94.9042 325.731C96.1253 327.992 97.2537 332.229 98.3821 336.37C99.041 338.819 99.6979 341.172 100.262 343.055C100.357 343.338 100.167 343.715 99.8853 343.808C99.8853 343.713 99.7905 343.808 99.6979 343.808V343.81Z" fill="#2E2020"/>
<path d="M60.7821 148.619C60.5948 148.619 60.5 148.524 60.3127 148.432C60.0306 148.149 60.0306 147.771 60.3127 147.584C61.5337 146.361 64.7316 141.652 64.5421 140.146C64.0726 136.945 62.2853 134.591 60.3127 132.048C60.0306 131.671 59.6537 131.2 59.3737 130.825L59.1863 130.543C58.7168 129.977 57.8705 128.659 57.2116 128.847C56.1779 129.13 54.4853 131.295 53.639 132.331L53.3569 132.708C53.1695 132.991 52.7927 132.991 52.5106 132.803C52.2285 132.615 52.2285 132.238 52.4158 131.955L52.6979 131.578C54.1085 129.79 55.519 127.999 56.9274 127.717C58.3379 127.339 59.4663 128.94 60.2179 129.882L60.4053 130.165C60.6874 130.542 61.0642 131.013 61.3443 131.388C63.319 133.931 65.2917 136.567 65.8559 140.051C66.138 142.217 62.378 147.396 61.3443 148.526C61.0622 148.621 60.9675 148.621 60.7801 148.621L60.7821 148.619Z" fill="#2E2020"/>
<path d="M65.4811 138.733C65.3864 138.733 65.199 138.733 65.1043 138.545C64.8222 138.358 64.8222 137.98 65.0096 137.698C65.9485 136.475 68.5822 133.366 68.8643 131.295C69.0517 130.072 68.6769 128.189 68.3001 126.211C67.5485 122.067 66.6075 116.983 70.7443 115.572C71.0264 115.477 71.4032 115.667 71.4959 115.95C71.5906 116.232 71.4011 116.61 71.119 116.702C68.2054 117.738 68.6748 121.129 69.5211 125.931C69.898 128.001 70.2727 129.885 70.0854 131.392C69.8032 133.558 67.7359 136.289 65.9485 138.455C65.7612 138.642 65.6664 138.737 65.479 138.737L65.4811 138.733Z" fill="#2E2020"/>
<path d="M63.7885 118.678C63.6938 118.678 63.6011 118.678 63.5064 118.583C63.2243 118.396 63.1296 118.018 63.319 117.736C63.7885 116.888 64.258 116.513 64.7295 116.04C65.2937 115.57 65.8579 115.098 66.8916 113.78C68.6769 111.426 70.6516 112.084 72.5316 112.649C73.0958 112.837 73.66 113.027 74.3169 113.215C74.6937 113.309 74.8811 113.592 74.7864 113.967C74.6917 114.345 74.4095 114.533 74.0348 114.438C73.3759 114.25 72.719 114.06 72.1548 113.872C70.2748 113.212 69.1464 112.837 67.8306 114.533C66.7022 115.945 65.9506 116.603 65.4811 117.076C65.0116 117.453 64.7295 117.736 64.3527 118.394C64.1653 118.581 63.9759 118.676 63.7885 118.676V118.678Z" fill="#2E2020"/>
<path d="M61.6284 119.431H61.5337C61.1569 119.336 60.9695 119.054 61.0642 118.678C61.6284 116.135 63.6958 112.746 66.2347 111.711C67.4558 111.146 68.679 111.146 69.8074 111.806C70.0895 111.993 70.1842 112.371 70.0895 112.653C69.9021 112.936 69.5253 113.031 69.2432 112.936C68.4916 112.466 67.6453 112.466 66.7042 112.841C64.6369 113.784 62.7569 116.795 62.2853 118.961C62.1906 119.244 61.9085 119.431 61.6264 119.431H61.6284Z" fill="#2E2020"/>
<path d="M58.9948 121.22H58.9001C58.5233 121.125 58.3359 120.842 58.4306 120.467C58.9001 118.206 60.4053 112.934 63.1296 111.616C63.9759 111.239 64.9148 111.239 65.7612 111.616C66.0433 111.804 66.2306 112.086 66.0433 112.464C65.8559 112.746 65.5738 112.934 65.1969 112.746C64.6327 112.464 64.1633 112.464 63.5991 112.746C61.8138 113.594 60.3085 117.453 59.5569 120.749C59.5569 121.032 59.2748 121.22 58.9927 121.22H58.9948Z" fill="#2E2020"/>
<path d="M58.8074 128.847H58.7127C58.3359 128.752 58.1485 128.47 58.2432 128.094C58.5253 127.059 58.2432 125.551 57.9611 124.045C57.3969 120.656 56.6453 116.418 60.5 113.499C60.7821 113.311 61.159 113.311 61.3463 113.594C61.5337 113.877 61.5337 114.254 61.2516 114.442C57.9611 116.89 58.62 120.562 59.1842 123.763C59.4663 125.458 59.7484 127.059 59.4663 128.282C59.279 128.659 59.0895 128.847 58.8074 128.847Z" fill="#2E2020"/>
<path d="M274.538 177.339C274.256 177.339 274.068 177.151 273.973 176.869C272.845 172.82 273.504 168.676 274.35 164.347C274.445 163.969 274.727 163.781 275.102 163.876C275.477 163.971 275.666 164.254 275.571 164.629C274.82 168.773 274.161 172.822 275.194 176.588C275.289 176.871 275.1 177.248 274.725 177.341C274.63 177.246 274.63 177.341 274.538 177.341V177.339Z" fill="#2E2020"/>
<path d="M259.59 187.508C259.496 187.508 259.308 187.508 259.213 187.413C258.931 187.225 258.931 186.848 259.119 186.565C260.999 184.117 263.912 183.081 266.733 182.046C268.896 181.293 270.963 180.54 272.561 179.22C274.536 177.62 275.757 174.513 274.253 172.347C274.066 172.065 274.159 171.687 274.441 171.5C274.723 171.312 275.1 171.405 275.287 171.687C277.167 174.418 275.757 178.185 273.312 180.256C271.527 181.761 269.27 182.516 267.108 183.362C264.289 184.397 261.75 185.34 260.058 187.506C259.963 187.411 259.776 187.506 259.588 187.506L259.59 187.508Z" fill="#2E2020"/>
<path d="M267.582 196.829C266.736 196.829 265.797 195.511 263.163 191.557C262.317 190.239 261.188 188.638 260.624 188.073H260.437C260.06 187.978 259.872 187.695 259.967 187.32C260.062 187.037 260.249 186.755 260.531 186.66C261.283 186.565 261.752 187.225 264.197 190.804C265.23 192.309 266.828 194.758 267.58 195.418C267.674 195.135 267.767 194.57 267.957 194.1C268.521 191.746 269.554 187.79 273.597 184.401C278.203 180.54 278.016 179.412 277.544 177.434C277.449 177.056 277.357 176.586 277.262 176.116C276.98 174.233 275.569 172.82 274.253 171.502L273.877 171.124C273.595 170.842 273.595 170.464 273.877 170.277C274.159 169.994 274.536 169.994 274.723 170.277L275.1 170.654C276.51 172.067 278.201 173.668 278.483 176.021C278.578 176.491 278.67 176.869 278.67 177.244C279.235 179.787 279.235 181.293 274.251 185.437C270.491 188.638 269.552 192.309 268.988 194.475C268.706 195.793 268.519 196.546 267.767 196.829H267.58H267.582Z" fill="#2E2020"/>
<path d="M206.668 270.272H206.481C203.003 269.424 201.969 266.411 201.028 263.587C200.934 263.21 200.746 262.834 200.651 262.457C199.241 258.408 197.079 254.454 195.106 250.688L194.542 249.557C193.321 247.297 192.567 244.848 191.91 242.685C190.877 239.483 189.843 235.717 190.5 231.951C191.721 225.078 196.704 219.239 201.592 213.497C203.378 211.331 205.165 209.353 206.574 207.377C209.112 203.893 211.367 200.032 213.624 196.36C214.376 195.042 215.222 193.724 215.974 192.406L216.443 191.654C218.228 188.64 220.298 185.156 223.586 183.18C226.03 181.675 229.131 181.297 232.045 181.015C233.361 180.827 234.584 180.732 235.71 180.449C236.275 180.355 236.931 180.167 237.59 179.884C238.06 179.697 238.531 179.602 239.001 179.507C239.283 179.412 239.66 179.602 239.753 179.977C239.845 180.352 239.658 180.637 239.283 180.73C238.814 180.825 238.437 181.013 237.967 181.107C237.308 181.295 236.651 181.578 235.993 181.673C234.771 181.955 233.548 182.05 232.233 182.238C229.414 182.615 226.498 182.898 224.243 184.309C221.235 186.097 219.355 189.298 217.475 192.311L217.005 193.064C216.254 194.382 215.407 195.7 214.656 197.018C212.494 200.785 210.144 204.646 207.605 208.13C206.102 210.108 204.409 212.179 202.529 214.344C197.736 219.899 192.847 225.643 191.719 232.141C191.155 235.624 192.096 239.203 193.035 242.309C193.694 244.475 194.445 246.828 195.574 248.994L196.138 250.124C198.205 253.986 200.275 258.035 201.778 262.083C201.873 262.461 202.06 262.836 202.155 263.214C203.094 265.945 203.94 268.393 206.761 269.051C207.043 269.146 207.325 269.428 207.23 269.804C207.136 270.086 206.948 270.274 206.666 270.274L206.668 270.272Z" fill="#2E2020"/>
<path d="M215.599 264.34C215.129 264.245 214.94 263.962 215.035 263.587C215.504 260.761 214.658 258.785 213.624 256.337C213.155 255.302 212.683 254.076 212.214 252.666C211.367 250.217 210.898 247.581 210.334 245.038C209.769 242.307 209.205 239.389 208.266 236.752C207.984 235.81 207.42 234.869 206.856 233.929C206.104 232.706 205.352 231.386 205.07 230.068C204.976 229.69 205.165 229.408 205.54 229.315C205.915 229.222 206.199 229.41 206.291 229.785C206.574 230.915 207.232 232.138 207.889 233.269C208.454 234.211 209.018 235.247 209.393 236.282C210.334 239.013 210.99 241.932 211.555 244.755C212.024 247.204 212.588 249.84 213.34 252.193C213.809 253.511 214.279 254.642 214.75 255.772C215.879 258.315 216.818 260.481 216.254 263.682C216.159 264.059 215.971 264.342 215.595 264.342L215.599 264.34Z" fill="#2E2020"/>
<path d="M209.302 274.038H209.115C207.986 273.943 206.201 270.177 206.106 269.895C206.011 269.612 206.201 269.329 206.388 269.234C207.235 268.669 208.174 268.387 209.115 268.104C210.243 267.727 211.371 267.351 212.31 266.598C213.813 265.375 214.285 264.433 214.66 263.868C214.942 263.49 215.129 263.115 215.506 263.02C215.883 262.925 216.258 263.115 216.54 263.302C217.761 264.055 218.325 264.998 218.325 266.033C218.325 268.387 215.317 270.46 213.062 272.06C212.967 272.155 212.78 272.248 212.592 272.438C211.746 273.098 210.43 274.038 209.302 274.038ZM207.422 269.989C207.891 270.837 208.832 272.438 209.302 272.813C209.961 272.813 211.277 271.873 211.934 271.4C212.121 271.213 212.31 271.118 212.403 271.023C214.283 269.705 217.102 267.727 217.102 266.033C217.102 265.468 216.725 264.81 215.881 264.245C215.881 264.245 215.786 264.245 215.786 264.15C215.786 264.245 215.691 264.245 215.691 264.338C215.315 264.903 214.752 266.033 213.06 267.444C211.931 268.385 210.616 268.762 209.395 269.232C208.736 269.515 208.079 269.703 207.42 269.985L207.422 269.989Z" fill="#2E2020"/>
<path d="M208.643 236C208.361 236 208.079 235.812 208.079 235.529C207.984 235.152 208.174 234.869 208.548 234.777C209.207 234.589 209.959 233.553 210.428 232.706L210.992 231.858C212.496 229.88 214.188 228.279 215.881 226.679C216.727 225.926 217.479 225.173 218.23 224.418C218.512 224.135 218.889 224.135 219.077 224.418C219.264 224.701 219.359 225.078 219.077 225.266C218.325 226.019 217.479 226.866 216.632 227.619C214.94 229.22 213.249 230.726 211.839 232.609C211.651 232.796 211.557 233.079 211.369 233.362C210.71 234.397 209.866 235.715 208.738 235.998H208.643V236Z" fill="#2E2020"/>
<path d="M222.837 268.201C222.742 268.201 222.555 268.106 222.46 268.013C221.239 266.978 221.519 265.188 221.708 264.059C222.272 260.763 222.649 257.657 222.272 254.549C221.99 252.948 221.803 251.348 221.614 249.747C221.237 246.828 220.862 243.72 220.298 240.801C220.016 239.483 219.734 238.258 219.451 236.94C218.51 233.269 217.571 229.408 218.136 225.359C218.512 222.533 219.639 219.614 220.675 216.508C222.649 211.046 224.622 205.492 222.931 200.69C222.837 200.407 223.026 200.03 223.308 199.937C223.59 199.844 223.967 200.032 224.06 200.314C225.94 205.494 223.872 211.331 221.803 216.98C220.675 219.994 219.641 222.912 219.264 225.643C218.7 229.504 219.546 232.988 220.485 236.755C220.767 237.978 221.144 239.298 221.424 240.616C221.988 243.629 222.458 246.643 222.835 249.654C223.022 251.255 223.211 252.855 223.494 254.456C223.963 257.752 223.494 260.953 223.024 264.249C222.837 265.379 222.647 266.603 223.306 267.168C223.588 267.355 223.588 267.733 223.401 268.015C223.213 268.11 223.024 268.203 222.837 268.203V268.201Z" fill="#2E2020"/>
<path d="M281.399 263.965C277.921 263.965 271.904 261.421 267.298 255.772C262.691 250.027 248.403 211.046 252.917 207.092C253.199 206.904 253.576 206.904 253.763 207.187C253.95 207.47 253.95 207.847 253.668 208.035C250.378 210.858 262.881 248.429 268.239 255.019C272.938 260.951 279.519 263.304 282.245 262.739C284.971 262.174 289.86 253.324 291.458 247.391C293.055 241.364 295.123 235.057 297.757 228.56C301.234 219.804 305.653 208.88 302.832 199.182C301.799 195.511 298.508 193.438 295.312 191.367L295.218 191.272C293.432 190.142 291.552 189.011 289.672 188.071C285.725 185.81 281.775 183.552 278.298 180.35C278.016 180.163 278.016 179.69 278.298 179.503C278.485 179.22 278.957 179.22 279.144 179.503C282.434 182.609 286.287 184.775 290.329 187.035C292.209 188.071 294.089 189.106 295.874 190.331L295.969 190.426C299.165 192.497 302.83 194.758 304.053 198.902C306.967 209.07 302.55 220.181 298.978 229.127C296.439 235.529 294.277 241.839 292.773 247.771C291.458 252.855 286.474 263.119 282.714 263.967C282.15 263.872 281.773 263.967 281.399 263.967V263.965Z" fill="#2E2020"/>
<path d="M283.279 248.427C282.902 248.427 282.62 248.049 282.62 247.767C283.371 240.799 279.893 236.563 276.228 231.949C273.315 228.37 270.401 224.699 269.085 219.427C268.99 219.049 268.898 218.484 268.708 217.826C266.077 205.774 264.571 204.174 263.914 204.266C263.538 204.361 263.256 204.079 263.256 203.796C263.161 203.419 263.443 203.136 263.725 203.136C266.075 202.759 267.862 208.408 269.929 217.636C270.024 218.296 270.211 218.767 270.306 219.237C271.434 224.226 274.348 227.805 277.167 231.196C281.022 235.903 284.592 240.424 283.841 247.862C283.841 248.239 283.559 248.427 283.277 248.427H283.279Z" fill="#2E2020"/>
<path d="M277.921 231.196C277.858 231.196 277.858 231.196 277.921 231.196C277.544 231.196 277.262 230.818 277.262 230.536C277.544 228.182 278.296 225.639 279.142 223.003C280.74 218.106 282.338 213.117 280.458 209.068C280.27 208.786 280.458 208.408 280.74 208.22C281.022 208.033 281.399 208.22 281.586 208.503C283.653 212.929 281.963 218.201 280.365 223.286C279.519 225.922 278.767 228.37 278.485 230.631C278.485 230.913 278.203 231.196 277.921 231.196Z" fill="#2E2020"/>
<path d="M253.668 202.761C252.917 202.761 252.258 202.573 251.788 202.196C251.506 201.913 251.224 201.443 251.224 200.69C251.224 200.312 251.601 200.125 251.883 200.125C252.26 200.125 252.447 200.502 252.447 200.785C252.447 201.162 252.542 201.255 252.542 201.255C252.824 201.443 253.483 201.632 255.361 201.255C256.582 200.972 260.719 200.032 261.001 196.829C261.001 196.451 261.378 196.263 261.66 196.263C262.037 196.263 262.224 196.641 262.224 196.923C261.847 200.878 257.053 202.103 255.645 202.385C254.986 202.668 254.234 202.763 253.67 202.763L253.668 202.761Z" fill="#2E2020"/>
<path d="M255.925 208.128C255.643 208.128 255.361 208.128 255.079 208.033C253.668 207.845 252.635 206.997 252.07 205.772C251.693 204.832 250.942 202.193 251.129 200.688C251.129 200.31 251.411 200.123 251.788 200.123C252.165 200.123 252.352 200.5 252.352 200.783C252.258 202.006 252.822 204.361 253.199 205.209C253.576 206.057 254.232 206.622 255.266 206.81C257.333 207.187 260.247 205.867 262.222 203.796C262.691 203.231 262.317 201.348 262.035 199.935C261.752 198.805 261.565 197.769 261.658 197.016C261.658 196.639 261.94 196.451 262.317 196.451C262.693 196.451 262.881 196.829 262.881 197.111C262.786 197.676 263.068 198.712 263.258 199.654C263.727 201.538 264.104 203.608 263.163 204.551C261.188 206.812 258.275 208.13 255.925 208.13V208.128Z" fill="#2E2020"/>
<path d="M253.293 202.008C253.106 202.008 252.917 201.913 252.824 201.82C248.594 196.641 245.773 190.521 244.083 182.706C243.988 182.328 244.178 182.046 244.552 181.953C244.834 181.858 245.211 182.048 245.304 182.423C246.997 190.051 249.723 195.888 253.858 200.972C254.045 201.255 254.045 201.632 253.763 201.82C253.576 201.915 253.481 202.008 253.293 202.008Z" fill="#2E2020"/>
<path d="M242.296 186.282C241.919 186.282 241.544 186.188 241.167 186.095C240.885 186 240.698 185.625 240.885 185.247C240.98 184.964 241.355 184.777 241.731 184.964C242.201 185.152 242.765 185.059 243.329 184.964C243.988 184.777 244.74 184.587 245.491 184.964C245.773 185.059 245.961 185.435 245.773 185.812C245.679 186.095 245.304 186.282 244.927 186.095C244.55 185.907 244.176 186 243.517 186.19C243.235 186.19 242.765 186.285 242.296 186.285V186.282Z" fill="#2E2020"/>
<path d="M242.952 190.049C242.106 190.049 241.355 189.861 240.696 189.484C239.567 188.731 239.003 187.506 238.816 185.622C238.816 185.34 238.721 185.057 238.533 184.68C238.346 184.02 237.969 183.267 238.439 182.326C238.908 181.386 240.224 180.821 241.352 180.443C241.729 180.256 242.104 180.161 242.386 179.973C242.668 179.785 243.045 179.973 243.232 180.256C243.42 180.538 243.232 180.916 242.95 181.103C242.668 181.291 242.199 181.386 241.822 181.574C240.976 181.951 239.847 182.326 239.565 182.892C239.378 183.269 239.47 183.644 239.66 184.21C239.755 184.587 239.942 184.962 239.942 185.433C240.037 186.846 240.506 187.786 241.258 188.351C242.386 189.104 244.171 188.729 245.395 188.256C245.677 188.162 246.053 188.256 246.146 188.634C246.239 189.011 246.146 189.294 245.769 189.387C244.736 189.764 243.795 190.047 242.95 190.047L242.952 190.049Z" fill="#2E2020"/>
<path d="M244.081 187.79C243.893 187.79 243.704 187.695 243.611 187.603L243.424 187.415C243.329 187.32 243.329 187.227 243.329 187.132V186.85L243.047 186.379C242.765 186.192 242.67 185.814 242.86 185.532C243.049 185.249 243.424 185.154 243.706 185.344L243.893 185.439C243.988 185.534 244.081 185.627 244.081 185.721L244.458 186.474C244.458 186.569 244.552 186.569 244.552 186.662L244.647 186.85C244.834 187.132 244.834 187.51 244.552 187.697C244.365 187.792 244.27 187.792 244.083 187.792L244.081 187.79Z" fill="#2E2020"/>
<path d="M239.757 181.763C239.38 181.763 239.098 181.386 239.098 181.103C239.475 177.337 241.447 177.242 243.422 177.149C244.268 177.149 245.207 177.054 246.148 176.679C246.43 176.584 246.807 176.679 246.9 177.056C246.995 177.339 246.9 177.716 246.523 177.809C245.395 178.187 244.361 178.28 243.422 178.28C241.542 178.374 240.508 178.374 240.226 181.103C240.321 181.481 240.131 181.763 239.757 181.763Z" fill="#2E2020"/>
<path d="M242.952 177.622C242.576 177.622 242.294 177.244 242.294 176.962C242.481 175.361 242.952 174.231 243.891 173.573C245.584 172.35 247.934 172.82 250.283 173.29C251.129 173.478 251.976 173.668 252.632 173.668C253.009 173.668 253.197 174.045 253.197 174.328C253.197 174.705 252.82 174.893 252.538 174.893C251.786 174.798 250.845 174.61 249.999 174.422C247.931 173.952 245.769 173.575 244.546 174.422C243.887 174.893 243.513 175.74 243.418 176.966C243.513 177.436 243.23 177.626 242.948 177.626L242.952 177.622Z" fill="#2E2020"/>
<path d="M261.565 198.242C261.378 198.242 261.188 198.147 261.096 198.054C258.746 195.23 258.087 189.298 257.523 184.872C257.428 184.024 257.336 183.271 257.241 182.518C257.146 181.858 257.146 181.2 257.053 180.54C256.959 178.469 256.771 176.304 255.173 175.268C254.891 175.08 254.797 174.703 254.986 174.42C255.175 174.138 255.55 174.043 255.832 174.233C257.994 175.551 258.089 178.187 258.277 180.447C258.277 181.107 258.371 181.765 258.464 182.331C258.559 182.991 258.651 183.836 258.746 184.684C259.216 188.828 259.967 194.57 262.037 197.206C262.224 197.489 262.224 197.866 261.942 198.054C261.847 198.149 261.66 198.242 261.565 198.242Z" fill="#2E2020"/>
<path d="M256.866 176.302C256.584 176.302 256.397 176.114 256.302 175.924C256.114 175.264 255.832 174.323 255.55 173.1C254.986 170.747 254.14 166.698 252.919 166.321C251.603 165.943 250.098 165.85 248.594 165.85C247.091 165.85 245.586 165.755 244.176 165.38C243.611 165.192 243.235 165.192 243.047 165.192C243.329 166.888 245.491 167.358 248.123 167.735C248.969 167.923 249.816 168.018 250.472 168.206C251.788 168.676 252.165 170.559 252.447 172.067C252.542 172.537 252.635 173.01 252.729 173.29C252.824 173.571 252.729 173.95 252.352 174.043C252.07 174.138 251.693 174.043 251.601 173.666C251.413 173.288 251.319 172.818 251.224 172.253C251.037 171.217 250.755 169.617 250.003 169.334C249.533 169.146 248.687 169.051 247.841 168.864C245.397 168.486 241.919 167.923 241.637 165.003C241.637 164.625 241.731 164.342 242.013 164.155C242.578 163.685 243.424 163.872 244.27 164.155C245.681 164.532 247.091 164.532 248.5 164.625C250.003 164.625 251.601 164.72 253.106 165.19C254.891 165.755 255.645 168.862 256.584 172.911C256.866 174.041 257.053 174.981 257.243 175.547C257.338 175.829 257.243 176.207 256.866 176.299C256.961 176.299 257.053 176.299 256.866 176.299V176.302Z" fill="#2E2020"/>
<path d="M292.397 189.201H292.302C291.925 189.106 291.738 188.824 291.832 188.448C292.209 186.47 291.738 184.399 291.268 182.139C290.799 180.068 290.422 177.995 290.609 175.829C290.891 172.816 291.55 169.897 292.207 167.166C293.148 163.212 293.992 159.446 293.805 155.302C293.71 152.289 292.959 147.109 289.199 146.451C288.822 146.357 288.634 146.074 288.729 145.699C288.824 145.323 289.106 145.133 289.481 145.228C294.087 146.076 295.026 151.818 295.121 155.209C295.308 159.541 294.369 163.59 293.428 167.449C292.769 170.18 292.112 173.098 291.925 176.017C291.738 177.995 292.207 179.971 292.584 181.949C293.053 184.21 293.523 186.468 293.148 188.729C292.961 189.011 292.679 189.199 292.397 189.199V189.201Z" fill="#2E2020"/>
<path d="M279.895 181.01C279.708 181.01 279.519 180.916 279.426 180.728C278.205 178.94 279.331 175.926 279.99 173.948C280.085 173.76 280.178 173.478 280.178 173.288C280.365 172.723 280.647 172.065 280.837 171.5C282.058 168.204 283.093 165.473 281.776 161.801C281.681 161.519 281.87 161.141 282.152 161.049C282.434 160.956 282.811 161.143 282.904 161.426C284.314 165.475 283.186 168.676 281.963 171.972C281.775 172.537 281.493 173.102 281.304 173.76C281.209 173.948 281.117 174.138 281.117 174.42C280.552 175.926 279.519 178.847 280.365 180.07C280.552 180.352 280.46 180.73 280.178 180.918C280.083 181.013 279.99 181.013 279.895 181.013V181.01Z" fill="#2E2020"/>
<path d="M245.961 275.546C245.679 275.546 245.491 275.358 245.397 275.169C244.645 273.285 244.738 271.307 244.832 269.331C244.832 268.671 244.927 268.013 244.927 267.353C244.927 264.905 244.927 262.552 244.832 260.103C244.832 257.655 244.738 255.302 244.738 252.853C244.738 249.087 244.268 245.226 243.891 241.459C243.232 235.998 242.576 230.348 243.327 224.793C243.986 219.521 245.677 214.53 247.369 209.728C248.403 206.622 249.531 203.419 250.283 200.217C250.378 199.935 250.66 199.652 251.035 199.747C251.317 199.842 251.599 200.125 251.504 200.5C250.658 203.796 249.624 206.997 248.496 210.104C246.898 214.905 245.205 219.802 244.548 224.886C243.889 230.253 244.548 235.808 245.112 241.27C245.582 245.036 246.053 248.99 246.053 252.756C246.053 255.205 246.053 257.558 246.148 260.006C246.148 262.455 246.243 264.808 246.243 267.256C246.243 267.916 246.243 268.574 246.148 269.234C246.053 271.118 245.961 272.906 246.618 274.507C246.712 274.789 246.618 275.167 246.241 275.259C246.146 275.542 246.053 275.542 245.959 275.542L245.961 275.546Z" fill="#2E2020"/>
<path d="M280.834 269.989C280.647 269.989 280.458 269.895 280.365 269.707C279.144 267.919 279.144 266.035 279.144 264.057V263.587C279.144 263.21 279.426 262.927 279.803 262.927C280.18 262.927 280.462 263.21 280.462 263.587V264.057C280.462 265.94 280.462 267.541 281.403 269.047C281.59 269.329 281.498 269.707 281.215 269.895C281.121 269.989 280.933 269.989 280.839 269.989H280.834Z" fill="#2E2020"/>
<path d="M252.352 275.921C235.056 275.921 223.965 269.612 222.367 268.106C222.085 267.824 222.085 267.446 222.367 267.259C222.649 266.976 223.026 266.976 223.213 267.259C225.47 269.519 248.123 281.759 281.024 269.142C281.306 269.047 281.683 269.142 281.776 269.519C281.87 269.802 281.776 270.179 281.399 270.272C270.588 274.509 260.719 275.921 252.352 275.921Z" fill="#2E2020"/>
<path d="M219.359 287.315C218.138 287.315 216.445 285.997 215.976 285.432C215.788 285.244 215.599 284.962 215.411 284.772C215.035 284.302 214.752 283.924 214.378 283.549C214.096 283.172 213.719 282.889 213.437 282.514C212.872 281.948 212.216 281.29 211.651 280.63C211.464 280.348 211.464 279.97 211.746 279.783C212.028 279.595 212.405 279.595 212.592 279.878C213.157 280.538 213.721 281.101 214.285 281.666C214.567 282.043 214.944 282.326 215.226 282.701C215.603 283.172 215.978 283.549 216.354 284.019C216.542 284.207 216.731 284.49 216.919 284.679C217.483 285.339 218.893 286.185 219.363 286.092C219.363 286.092 219.363 285.905 219.268 285.432C218.609 282.984 215.696 280.253 214.474 279.123C213.533 278.275 212.689 277.9 212.5 277.992C212.5 277.992 212.312 278.18 212.312 278.652C212.312 279.03 212.03 279.312 211.653 279.312C211.277 279.312 210.995 279.03 210.995 278.652C210.995 277.522 211.464 277.052 211.934 276.864C213.155 276.299 214.755 277.712 215.224 278.182C217.386 280.16 219.643 282.608 220.395 285.055C220.771 286.373 220.3 286.938 219.925 287.126C219.83 287.22 219.548 287.313 219.361 287.313L219.359 287.315Z" fill="#2E2020"/>
<path d="M221.428 285.242C221.241 285.242 221.146 285.148 220.959 285.055C220.677 284.772 220.677 284.395 220.959 284.207C221.241 283.924 221.053 282.606 220.677 281.854C219.643 279.688 216.07 274.791 214.66 274.981C214.378 274.981 214.096 275.546 213.908 276.394C213.813 276.771 213.531 276.959 213.157 276.864C212.782 276.769 212.592 276.487 212.687 276.111C212.969 274.605 213.533 273.851 214.472 273.663C217.386 273.285 221.71 281.101 221.71 281.196C222.18 282.138 222.744 284.019 221.805 285.057C221.71 285.152 221.618 285.244 221.428 285.244V285.242Z" fill="#2E2020"/>
<path d="M223.213 282.701C223.119 282.701 223.026 282.701 222.931 282.606C222.649 282.419 222.462 282.136 222.649 281.759C224.06 278.652 219.923 273.378 217.197 271.965H217.102C216.725 272.248 216.443 273.378 216.538 273.661C216.632 273.943 216.35 274.321 216.068 274.414C215.786 274.507 215.409 274.319 215.317 273.943C215.222 273.283 215.504 271.683 216.35 271.025C216.82 270.742 217.291 270.647 217.761 270.93C220.862 272.531 225.563 278.463 223.778 282.324C223.683 282.606 223.496 282.701 223.213 282.701Z" fill="#2E2020"/>
<path d="M223.87 279.783C223.776 279.783 223.683 279.783 223.588 279.688C223.306 279.5 223.211 279.123 223.401 278.84C224.811 276.392 221.521 269.802 219.453 268.011C219.266 267.824 219.171 267.824 219.171 267.824C218.795 268.011 218.512 269.802 218.512 270.46C218.607 270.742 218.512 271.025 218.23 271.213C217.948 271.307 217.571 271.213 217.479 271.025C217.102 270.555 217.479 267.729 218.325 266.881C218.607 266.693 219.264 266.221 220.3 266.976C222.462 268.764 226.409 276.014 224.529 279.31C224.342 279.688 224.152 279.781 223.87 279.781V279.783Z" fill="#2E2020"/>
<path d="M211.746 278.84C211.464 278.84 211.182 278.652 211.182 278.37L211.087 277.805C210.805 276.582 210.523 275.451 209.959 274.321C209.771 274.038 209.959 273.661 210.241 273.473C210.523 273.285 210.9 273.473 211.087 273.756C211.651 274.979 212.026 276.299 212.308 277.522L212.403 278.087C212.498 278.465 212.308 278.747 211.934 278.84H211.746Z" fill="#2E2020"/>
<path d="M221.428 269.519C221.051 269.519 220.769 269.237 220.769 268.859V268.294L221.051 267.541L221.146 266.506C221.146 266.128 221.523 265.941 221.805 265.941C222.182 265.941 222.369 266.318 222.369 266.601L222.275 267.636V267.731L222.087 268.391V268.673C222.087 269.239 221.805 269.521 221.428 269.521V269.519Z" fill="#2E2020"/>
<path d="M221.99 342.963C221.708 342.963 221.426 342.775 221.426 342.492C221.144 341.269 220.767 339.386 220.205 337.125C217.479 325.826 211.651 302.475 214.847 285.81C214.942 285.432 215.224 285.244 215.599 285.339C215.974 285.434 216.163 285.717 216.068 286.092C212.872 302.476 218.607 325.734 221.331 336.843C221.896 339.196 222.365 340.987 222.647 342.305C222.742 342.682 222.46 342.965 222.178 343.057C222.083 342.963 221.99 342.963 221.99 342.963Z" fill="#2E2020"/>
<path d="M286.382 342.68C286.005 342.68 285.723 342.397 285.723 342.02C285.818 340.324 286.005 337.971 286.192 335.335C287.413 318.199 289.952 282.606 280.365 270.367C280.178 270.084 280.178 269.707 280.46 269.519C280.742 269.331 281.119 269.331 281.306 269.614C291.27 282.231 288.639 318.199 287.415 335.43C287.228 338.161 287.039 340.419 286.946 342.115C286.946 342.397 286.664 342.68 286.382 342.68Z" fill="#2E2020"/>
<path d="M248.875 343.998C248.498 343.998 248.216 343.715 248.216 343.338C248.403 331.756 247.182 311.512 237.687 305.77C237.405 305.582 237.31 305.204 237.5 304.922C237.689 304.639 238.064 304.544 238.346 304.734C247.934 310.478 249.721 328.933 249.439 343.433C249.439 343.715 249.251 343.998 248.875 343.998Z" fill="#2E2020"/>
<path d="M104.397 151.445C104.302 151.445 104.115 151.445 104.02 151.35C103.738 151.162 103.738 150.785 103.925 150.502C104.207 150.125 104.584 149.655 104.864 149.279C105.711 148.149 106.462 147.114 107.778 146.266C108.06 146.078 108.437 146.171 108.624 146.453C108.812 146.736 108.719 147.114 108.437 147.301C107.308 148.054 106.652 148.997 105.898 150.032C105.616 150.41 105.334 150.88 104.957 151.255C104.675 151.35 104.487 151.443 104.393 151.443L104.397 151.445Z" fill="#2E2020"/>
<path d="M103.927 130.26C103.551 130.26 103.176 130.26 102.894 130.165C102.612 130.07 102.424 129.695 102.517 129.412C102.61 129.13 102.986 128.942 103.268 129.035C104.302 129.317 107.028 128.752 107.78 127.812C107.967 127.529 108.344 127.529 108.626 127.717C108.908 127.904 108.908 128.282 108.721 128.564C107.875 129.507 105.525 130.26 103.927 130.26Z" fill="#2E2020"/>
<path d="M102.612 131.766C102.517 131.766 102.424 131.766 102.329 131.671C102.142 131.576 102.047 131.483 101.953 131.483C101.576 131.295 101.388 131.106 101.294 130.73C101.294 130.635 101.199 130.448 101.106 130.26C101.012 129.977 101.106 129.6 101.388 129.412C101.671 129.317 102.047 129.412 102.235 129.695C102.329 129.977 102.422 130.165 102.517 130.26V130.355H102.612C102.706 130.45 102.799 130.45 102.988 130.543C103.27 130.73 103.365 131.108 103.176 131.39C102.988 131.578 102.799 131.768 102.612 131.768V131.766Z" fill="#2E2020"/>
<path d="M249.064 162.932C248.877 162.932 248.687 162.837 248.594 162.744C247.561 161.614 246.527 160.483 245.117 160.483C244.74 160.483 244.458 160.201 244.458 159.823C244.458 159.446 244.74 159.163 245.117 159.163C246.997 159.163 248.407 160.576 249.536 161.799C249.723 162.082 249.723 162.459 249.441 162.647C249.346 162.835 249.253 162.93 249.064 162.93V162.932Z" fill="#2E2020"/>
<path d="M260.719 146.926C258.839 146.926 252.822 146.738 252.54 143.912C252.54 143.535 252.727 143.252 253.104 143.252C253.481 143.252 253.763 143.44 253.763 143.817C253.858 145.041 257.428 145.701 260.719 145.701C261.096 145.701 261.378 145.983 261.378 146.361C261.283 146.643 261.096 146.926 260.719 146.926Z" fill="#2E2020"/>
<path d="M251.696 146.078C251.508 146.078 251.226 145.983 251.131 145.796C250.944 145.513 250.849 145.418 250.849 145.23C250.662 144.853 250.567 144.76 250.662 144.383V144.1C250.662 143.723 250.944 143.44 251.321 143.44C251.698 143.44 251.98 143.723 251.98 144.1V144.478C252.074 144.572 252.167 144.76 252.357 145.043C252.546 145.325 252.451 145.703 252.074 145.89C251.887 146.078 251.792 146.078 251.698 146.078H251.696Z" fill="#2E2020"/>
<path fill-rule="evenodd" clip-rule="evenodd" d="M88.4179 71.127C89.4516 71.5044 90.1105 71.9747 90.4853 72.7275C90.86 73.4804 90.9548 74.1404 90.7674 74.7984C90.58 75.4564 90.2032 76.0215 89.4516 76.4939C88.7927 76.9641 87.9484 77.059 86.82 76.8713C85.4095 76.4939 84.1884 75.9308 83.2474 74.9882C82.3084 74.1404 81.6495 73.105 81.2727 71.9747C80.8959 70.8444 80.8032 69.6213 81.0853 68.3032C81.3674 66.9852 81.9316 65.76 82.8706 64.5369C83.5295 63.7841 84.2811 63.0312 85.3148 62.2763C86.3485 61.5234 87.3821 60.7706 88.4158 60.0157C89.4495 59.2628 90.4832 58.51 91.3295 57.6622C92.2685 56.9094 92.9274 56.0617 93.3042 55.119C93.6811 54.2713 93.7737 53.3308 93.4916 52.2953C93.2095 51.3527 92.3632 50.3173 91.0474 49.189C90.86 49.0942 90.7653 49.0942 90.5779 49.0013C90.3905 48.9085 90.2958 48.9065 90.1085 48.8136C88.0411 48.8136 86.0664 49.3788 84.2811 50.5091C82.4958 51.6394 80.8979 52.9574 79.5821 54.558C78.8305 55.4057 78.0789 55.7811 77.3253 55.876C76.479 55.9709 75.8221 55.7811 75.2579 55.3109C74.6937 54.8406 74.3189 54.2754 74.2242 53.4277C74.1295 52.58 74.3189 51.7322 74.9758 50.8845C76.0095 49.6614 77.2326 48.4362 78.5484 47.4008C79.9589 46.2704 81.3674 45.3299 82.9674 44.6699C84.5652 43.917 86.1631 43.4467 87.761 43.1642C89.3589 42.8816 90.9568 42.9765 92.3673 43.3518C93.7778 43.7293 95.1884 44.4822 96.3147 45.6125C97.5358 46.7428 98.4768 48.3434 99.2284 50.4142C99.6979 51.7322 99.8873 53.0502 99.6979 54.2754C99.5084 55.5006 99.2284 56.6289 98.6642 57.7592C98.1 58.8895 97.4431 59.83 96.5968 60.7727C95.7505 61.7153 94.8115 62.5609 93.6831 63.3159C93.3063 63.5984 92.7421 63.9759 91.8031 64.539C90.9568 65.1041 90.1105 65.6693 89.2642 66.3273C88.4179 66.9873 87.761 67.7401 87.2895 68.493C86.82 69.2459 86.7253 69.9987 87.0074 70.7536C87.1021 70.8485 87.1948 70.9413 87.1948 70.9413C87.3821 71.0362 87.4769 71.129 87.6643 71.129C88.1337 71.0341 88.3232 71.129 88.4158 71.129L88.4179 71.127Z" fill="#7FB2CE"/>
<path fill-rule="evenodd" clip-rule="evenodd" d="M81.7442 84.2163C81.7442 83.086 82.2137 82.1454 83.06 81.3926C83.9063 80.6397 84.8453 80.2623 85.9737 80.3571C87.1021 80.3571 88.0411 80.8274 88.7927 81.6751C89.5443 82.5229 89.9211 83.4634 89.9211 84.5937C89.9211 85.724 89.4516 86.6646 88.6053 87.4175C87.759 88.1703 86.82 88.5478 85.6916 88.5478C84.5632 88.5478 83.6242 88.0775 82.8726 87.2298C82.121 86.2892 81.7442 85.3466 81.7442 84.2163Z" fill="#7FB2CE"/>
<path fill-rule="evenodd" clip-rule="evenodd" d="M268.239 89.1129C269.272 89.4904 269.931 89.9607 270.306 90.7135C270.681 91.4664 270.776 92.1264 270.588 92.7844C270.401 93.4423 270.024 94.0075 269.272 94.4798C268.613 94.9501 267.769 95.045 266.641 94.8573C265.23 94.4798 264.009 93.9167 263.068 92.9741C262.127 92.1264 261.47 91.091 261.093 89.9607C260.717 88.8303 260.624 87.6072 260.906 86.2892C261.188 84.9712 261.752 83.746 262.691 82.5229C263.35 81.77 264.102 81.0172 265.136 80.2623L268.237 78.0016C269.27 77.2488 270.304 76.4959 271.15 75.6482C272.091 74.8953 272.748 74.0476 273.125 73.105C273.502 72.2573 273.595 71.3167 273.312 70.2813C273.03 69.3407 272.184 68.3032 270.868 67.175C270.681 67.0801 270.586 67.0801 270.399 66.9873C270.211 66.8945 270.117 66.8924 269.929 66.7996C267.862 66.7996 265.887 67.3648 264.102 68.4951C262.317 69.6254 260.719 70.9434 259.403 72.544C258.651 73.3917 257.9 73.7671 257.146 73.862C256.3 73.9569 255.643 73.7671 255.079 73.2968C254.515 72.8265 254.138 72.2614 254.045 71.4137C253.952 70.5659 254.14 69.7182 254.797 68.8705C255.83 67.6473 257.053 66.4221 258.369 65.3867C259.78 64.2564 261.188 63.3158 262.788 62.6558C264.386 61.903 265.984 61.4327 267.582 61.1501C269.18 60.8675 270.778 60.9624 272.188 61.3378C273.599 61.7132 275.009 62.4681 276.135 63.5984C277.357 64.7287 278.298 66.3293 279.049 68.4002C279.519 69.7182 279.708 71.0362 279.519 72.2614C279.329 73.4866 279.049 74.6148 278.485 75.7451C277.921 76.8755 277.264 77.816 276.418 78.7586C275.571 79.6992 274.632 80.5469 273.504 81.3018C273.127 81.5844 272.563 81.9618 271.624 82.5249C270.778 83.0901 269.931 83.6553 269.085 84.3132C268.239 84.9712 267.582 85.7261 267.11 86.479C266.639 87.2318 266.546 87.9847 266.828 88.7396L267.016 88.9273C267.203 89.0222 267.298 89.115 267.485 89.115C267.862 89.0201 268.049 89.115 268.237 89.115L268.239 89.1129Z" fill="#7FB2CE"/>
<path fill-rule="evenodd" clip-rule="evenodd" d="M261.565 102.2C261.565 101.07 262.034 100.129 262.881 99.3765C263.727 98.6236 264.666 98.2462 265.794 98.341C266.923 98.341 267.862 98.8113 268.613 99.659C269.365 100.507 269.742 101.447 269.742 102.578C269.742 103.708 269.272 104.648 268.426 105.403C267.58 106.158 266.641 106.534 265.512 106.534C264.384 106.534 263.445 106.063 262.693 105.216C261.847 104.368 261.472 103.333 261.565 102.202V102.2Z" fill="#7FB2CE"/>
<path fill-rule="evenodd" clip-rule="evenodd" d="M183.689 84.2072C185.575 84.8628 186.87 85.8174 187.637 87.1872C188.344 88.5584 188.579 89.8695 188.227 91.1819C187.932 92.4342 187.108 93.5664 185.811 94.4009C184.515 95.2954 182.924 95.5331 180.921 95.1752C178.211 94.5197 175.973 93.3274 174.206 91.6585C172.438 89.9896 171.202 88.0217 170.435 85.8761C169.67 83.7306 169.551 81.4048 170.022 78.9015C170.493 76.3981 171.613 74.0723 173.439 71.8079C174.618 70.3767 176.149 68.9468 178.035 67.4568C179.978 66.0255 181.923 64.5355 183.866 63.1056C185.869 61.6744 187.695 60.1844 189.403 58.6944C191.112 57.2044 192.349 55.5942 193.055 53.9253C193.821 52.2564 193.939 50.4674 193.409 48.6796C192.879 46.8318 191.347 44.9239 188.756 42.8972C188.461 42.7784 188.225 42.7183 187.931 42.5995C187.637 42.4806 187.341 42.4206 186.989 42.3017C183.042 42.3017 179.39 43.3752 176.032 45.4606C172.674 47.5474 169.728 50.1109 167.254 53.1509C165.899 54.6409 164.485 55.4754 162.955 55.5955C161.423 55.7144 160.127 55.3566 159.067 54.5221C158.006 53.6877 157.358 52.4954 157.064 51.0054C156.828 49.4553 157.241 47.8465 158.419 46.1175C160.362 43.793 162.601 41.5874 165.194 39.4406C167.786 37.3538 170.554 35.566 173.5 34.1949C176.446 32.8237 179.391 31.8704 182.454 31.3337C185.518 30.797 188.345 30.9158 191.055 31.6315C193.765 32.3471 196.239 33.777 198.478 35.8638C200.717 38.0093 202.543 40.9906 203.956 44.984C204.84 47.4874 205.193 49.932 204.898 52.2564C204.603 54.5809 204.014 56.7277 203.012 58.8145C202.011 60.9013 200.715 62.8092 199.065 64.5368C197.416 66.2658 195.648 67.8747 193.645 69.366C192.997 69.9027 191.819 70.6771 190.228 71.6317C188.579 72.645 186.988 73.7772 185.515 75.0295C183.984 76.2819 182.805 77.653 181.863 79.0242C180.921 80.3954 180.745 81.8266 181.333 83.2565C181.51 83.4354 181.627 83.5543 181.746 83.5543C182.04 83.7332 182.276 83.852 182.63 83.852C183.101 84.091 183.395 84.1498 183.691 84.2098L183.689 84.2072Z" fill="#7FB2CE"/>
<path fill-rule="evenodd" clip-rule="evenodd" d="M171.2 108.947C171.26 106.801 172.084 105.072 173.616 103.641C175.148 102.21 176.915 101.554 179.036 101.615C181.157 101.675 182.924 102.509 184.338 104.059C185.811 105.609 186.459 107.397 186.401 109.544C186.342 111.691 185.517 113.478 183.927 114.91C182.336 116.4 180.51 117.055 178.449 116.996C176.329 116.936 174.62 116.102 173.206 114.493C171.792 112.943 171.144 111.095 171.203 108.95L171.2 108.947Z" fill="#7FB2CE"/>
</g>
<defs>
<clipPath id="clip0_335_3438">
<rect width="311" height="340" fill="white"/>
</clipPath>
</defs>
</svg>
